<svg id="svg" version="1.1" width="400" height="115.625" viewBox="0 0 400 115.625" xmlns="http://www.w3.org/2000/svg" xmlns:xlink="http://www.w3.org/1999/xlink" style="display: block;"><g id="svgg"><path id="path0" d="M125.625 9.458 C 132.156 9.482,142.844 9.482,149.375 9.458 C 155.906 9.434,150.563 9.414,137.500 9.414 C 124.438 9.414,119.094 9.434,125.625 9.458 M192.458 9.460 L 202.500 9.503 202.502 56.876 C 202.503 82.932,202.550 104.532,202.607 104.876 L 202.711 105.502 216.314 105.459 L 229.917 105.417 229.959 91.708 L 230.002 78.000 240.918 78.000 C 248.084 78.000,251.833 77.943,251.833 77.833 C 251.833 77.732,252.552 77.667,253.657 77.667 C 254.693 77.667,255.525 77.595,255.583 77.500 C 255.640 77.408,256.019 77.333,256.427 77.333 C 256.834 77.333,257.167 77.258,257.167 77.167 C 257.167 77.075,257.464 77.000,257.828 77.000 C 258.192 77.000,258.745 76.857,259.057 76.681 C 259.369 76.506,260.047 76.310,260.562 76.245 C 261.078 76.181,261.500 76.062,261.500 75.981 C 261.500 75.900,261.683 75.833,261.907 75.833 C 262.131 75.833,262.360 75.758,262.417 75.667 C 262.473 75.575,262.698 75.500,262.917 75.500 C 263.135 75.500,263.360 75.425,263.417 75.333 C 263.473 75.242,263.703 75.167,263.927 75.167 C 264.150 75.167,264.333 75.092,264.333 75.000 C 264.333 74.908,264.483 74.833,264.667 74.833 C 264.850 74.833,265.000 74.758,265.000 74.667 C 265.000 74.575,265.101 74.500,265.224 74.500 C 265.347 74.500,265.584 74.350,265.750 74.167 C 265.916 73.983,266.123 73.833,266.210 73.833 C 266.501 73.833,268.453 72.841,268.665 72.585 C 268.780 72.447,268.941 72.333,269.022 72.333 C 269.103 72.333,269.403 72.111,269.688 71.838 C 269.972 71.566,270.347 71.299,270.519 71.244 C 270.692 71.189,270.833 71.074,270.833 70.989 C 270.833 70.903,270.952 70.833,271.096 70.833 C 271.241 70.833,271.648 70.533,272.000 70.167 C 272.352 69.800,272.711 69.500,272.797 69.500 C 273.006 69.500,276.500 66.007,276.500 65.798 C 276.500 65.708,276.725 65.424,277.000 65.167 C 277.275 64.910,277.500 64.616,277.500 64.514 C 277.500 64.411,277.762 64.073,278.083 63.761 C 278.404 63.449,278.667 63.103,278.667 62.992 C 278.667 62.880,278.802 62.668,278.967 62.520 C 279.132 62.371,279.400 61.987,279.562 61.667 C 280.044 60.714,280.264 60.353,280.556 60.030 C 280.709 59.861,280.833 59.561,280.833 59.362 C 280.833 59.163,280.908 59.000,281.000 59.000 C 281.092 59.000,281.167 58.850,281.167 58.667 C 281.167 58.483,281.242 58.333,281.333 58.333 C 281.425 58.333,281.500 58.183,281.500 58.000 C 281.500 57.817,281.575 57.667,281.667 57.667 C 281.758 57.667,281.833 57.519,281.833 57.338 C 281.833 57.158,281.983 56.743,282.167 56.417 C 282.350 56.090,282.500 55.706,282.500 55.562 C 282.500 55.317,282.832 54.455,283.181 53.794 C 283.265 53.635,283.333 53.358,283.333 53.179 C 283.333 53.000,283.408 52.807,283.500 52.750 C 283.592 52.693,283.667 52.314,283.667 51.907 C 283.667 51.500,283.742 51.167,283.833 51.167 C 283.925 51.167,284.000 50.834,284.000 50.427 C 284.000 50.019,284.075 49.640,284.167 49.583 C 284.258 49.527,284.333 48.997,284.333 48.407 C 284.333 47.802,284.406 47.333,284.500 47.333 C 284.606 47.333,284.667 45.976,284.667 43.593 C 284.667 41.280,284.603 39.814,284.500 39.750 C 284.408 39.693,284.333 39.131,284.333 38.500 C 284.333 37.869,284.258 37.307,284.167 37.250 C 284.075 37.193,284.000 36.814,284.000 36.407 C 284.000 36.000,283.925 35.667,283.833 35.667 C 283.742 35.667,283.667 35.409,283.667 35.093 C 283.667 34.778,283.592 34.473,283.500 34.417 C 283.408 34.360,283.333 34.135,283.333 33.917 C 283.333 33.698,283.258 33.473,283.167 33.417 C 283.075 33.360,282.998 33.149,282.995 32.948 C 282.992 32.748,282.879 32.438,282.745 32.260 C 282.610 32.082,282.500 31.726,282.500 31.468 C 282.500 31.211,282.425 31.000,282.333 31.000 C 282.242 31.000,282.167 30.850,282.167 30.667 C 282.167 30.483,282.092 30.333,282.000 30.333 C 281.908 30.333,281.833 30.190,281.833 30.016 C 281.833 29.676,281.166 28.287,280.958 28.194 C 280.890 28.164,280.833 27.995,280.833 27.819 C 280.833 27.644,280.766 27.500,280.685 27.500 C 280.603 27.500,280.489 27.313,280.432 27.083 C 280.374 26.854,280.253 26.667,280.163 26.667 C 280.074 26.667,280.000 26.517,280.000 26.333 C 280.000 26.150,279.939 26.000,279.864 26.000 C 279.790 26.000,279.626 25.738,279.501 25.419 C 279.375 25.099,279.061 24.635,278.803 24.388 C 278.545 24.140,278.333 23.852,278.333 23.748 C 278.333 23.643,278.146 23.382,277.917 23.167 C 277.688 22.951,277.500 22.685,277.500 22.574 C 277.500 22.464,277.200 22.111,276.833 21.789 C 276.467 21.468,276.167 21.124,276.167 21.025 C 276.167 20.757,274.965 19.500,274.710 19.500 C 274.589 19.500,274.440 19.370,274.379 19.212 C 274.247 18.868,273.238 17.833,273.035 17.833 C 272.956 17.833,272.715 17.646,272.500 17.417 C 272.285 17.188,272.024 17.000,271.921 17.000 C 271.819 17.000,271.441 16.700,271.083 16.333 C 270.725 15.967,270.360 15.667,270.271 15.667 C 270.182 15.667,269.972 15.542,269.804 15.390 C 269.481 15.097,269.119 14.878,268.167 14.396 C 267.846 14.233,267.462 13.965,267.314 13.800 C 267.166 13.635,266.922 13.500,266.772 13.500 C 266.622 13.500,266.500 13.425,266.500 13.333 C 266.500 13.242,266.350 13.167,266.167 13.167 C 265.983 13.167,265.833 13.098,265.833 13.013 C 265.833 12.929,265.609 12.811,265.335 12.750 C 265.061 12.690,264.794 12.572,264.742 12.487 C 264.690 12.403,264.504 12.333,264.329 12.333 C 264.153 12.333,263.743 12.183,263.417 12.000 C 263.090 11.817,262.675 11.667,262.495 11.667 C 262.314 11.667,262.167 11.592,262.167 11.500 C 262.167 11.408,262.017 11.333,261.833 11.333 C 261.650 11.333,261.500 11.258,261.500 11.167 C 261.500 11.075,261.317 11.000,261.093 11.000 C 260.869 11.000,260.640 10.925,260.583 10.833 C 260.527 10.742,260.302 10.667,260.083 10.667 C 259.865 10.667,259.646 10.601,259.596 10.520 C 259.546 10.439,258.867 10.320,258.086 10.255 C 257.306 10.190,256.626 10.069,256.574 9.985 C 256.523 9.902,256.050 9.833,255.523 9.833 C 254.997 9.833,254.495 9.768,254.408 9.688 C 254.319 9.606,238.524 9.514,218.333 9.479 C 198.579 9.445,186.935 9.436,192.458 9.460 M161.333 10.157 C 161.333 10.518,161.258 10.860,161.167 10.917 C 161.075 10.973,161.000 11.203,161.000 11.427 C 161.000 11.650,160.925 11.833,160.833 11.833 C 160.742 11.833,160.667 12.091,160.667 12.407 C 160.667 12.722,160.592 13.027,160.500 13.083 C 160.408 13.140,160.333 13.440,160.333 13.750 C 160.333 14.060,160.258 14.360,160.167 14.417 C 160.075 14.473,160.000 14.703,160.000 14.927 C 160.000 15.150,159.925 15.333,159.833 15.333 C 159.742 15.333,159.667 15.591,159.667 15.907 C 159.667 16.222,159.592 16.527,159.500 16.583 C 159.408 16.640,159.333 16.865,159.333 17.083 C 159.333 17.302,159.264 17.523,159.178 17.576 C 159.093 17.629,158.972 18.084,158.909 18.588 C 158.846 19.092,158.728 19.545,158.647 19.595 C 158.566 19.645,158.500 19.865,158.500 20.083 C 158.500 20.302,158.425 20.527,158.333 20.583 C 158.242 20.640,158.167 20.944,158.167 21.260 C 158.167 21.575,158.092 21.833,158.000 21.833 C 157.908 21.833,157.833 22.091,157.833 22.407 C 157.833 22.722,157.758 23.027,157.667 23.083 C 157.575 23.140,157.500 23.440,157.500 23.750 C 157.500 24.060,157.434 24.354,157.353 24.404 C 157.121 24.548,157.032 25.299,157.225 25.491 C 157.347 25.614,157.340 25.727,157.200 25.867 C 157.090 25.977,157.000 25.997,157.000 25.913 C 157.000 25.433,156.513 26.562,156.421 27.256 C 156.318 28.030,156.169 28.509,155.814 29.206 C 155.733 29.365,155.667 29.717,155.667 29.988 C 155.667 30.259,155.592 30.527,155.500 30.583 C 155.408 30.640,155.333 30.944,155.333 31.260 C 155.333 31.575,155.258 31.833,155.167 31.833 C 155.075 31.833,155.000 32.091,155.000 32.407 C 155.000 32.722,154.925 33.027,154.833 33.083 C 154.742 33.140,154.667 33.365,154.667 33.583 C 154.667 33.802,154.592 34.027,154.500 34.083 C 154.408 34.140,154.333 34.369,154.333 34.593 C 154.333 34.817,154.262 35.000,154.175 35.000 C 154.088 35.000,153.965 35.452,153.903 36.004 C 153.841 36.556,153.724 37.048,153.645 37.097 C 153.565 37.146,153.500 37.365,153.500 37.583 C 153.500 37.802,153.425 38.027,153.333 38.083 C 153.242 38.140,153.167 38.444,153.167 38.760 C 153.167 39.075,153.092 39.333,153.000 39.333 C 152.908 39.333,152.833 39.591,152.833 39.907 C 152.833 40.222,152.758 40.527,152.667 40.583 C 152.575 40.640,152.500 40.944,152.500 41.260 C 152.500 41.575,152.425 41.833,152.333 41.833 C 152.242 41.833,152.167 42.016,152.167 42.240 C 152.167 42.464,152.092 42.693,152.000 42.750 C 151.908 42.807,151.833 43.032,151.833 43.250 C 151.833 43.468,151.762 43.691,151.674 43.745 C 151.587 43.799,151.465 44.291,151.403 44.838 C 151.341 45.386,151.225 45.833,151.145 45.833 C 151.065 45.833,151.000 46.016,151.000 46.240 C 151.000 46.464,150.925 46.693,150.833 46.750 C 150.742 46.807,150.667 47.107,150.667 47.417 C 150.667 47.727,150.592 48.027,150.500 48.083 C 150.408 48.140,150.333 48.444,150.333 48.760 C 150.333 49.075,150.258 49.333,150.167 49.333 C 150.075 49.333,150.000 49.591,150.000 49.907 C 150.000 50.222,149.925 50.527,149.833 50.583 C 149.742 50.640,149.667 50.865,149.667 51.083 C 149.667 51.302,149.592 51.527,149.500 51.583 C 149.408 51.640,149.333 51.869,149.333 52.093 C 149.333 52.317,149.258 52.500,149.167 52.500 C 149.075 52.500,149.000 52.683,149.000 52.907 C 149.000 53.131,148.935 53.354,148.855 53.403 C 148.776 53.452,148.660 53.942,148.598 54.491 C 148.535 55.040,148.413 55.534,148.326 55.588 C 148.238 55.642,148.167 55.944,148.167 56.260 C 148.167 56.575,148.092 56.833,148.000 56.833 C 147.908 56.833,147.833 57.091,147.833 57.407 C 147.833 57.722,147.758 58.027,147.667 58.083 C 147.575 58.140,147.500 58.444,147.500 58.760 C 147.500 59.075,147.425 59.333,147.333 59.333 C 147.242 59.333,147.167 59.516,147.167 59.740 C 147.167 59.964,147.092 60.193,147.000 60.250 C 146.908 60.307,146.833 60.532,146.833 60.750 C 146.833 60.968,146.762 61.191,146.674 61.245 C 146.587 61.299,146.465 61.791,146.403 62.338 C 146.341 62.886,146.225 63.333,146.145 63.333 C 146.065 63.333,146.000 63.516,146.000 63.740 C 146.000 63.964,145.925 64.193,145.833 64.250 C 145.742 64.307,145.667 64.607,145.667 64.917 C 145.667 65.227,145.592 65.527,145.500 65.583 C 145.408 65.640,145.333 65.944,145.333 66.260 C 145.333 66.575,145.258 66.833,145.167 66.833 C 145.075 66.833,145.000 67.091,145.000 67.407 C 145.000 67.722,144.925 68.027,144.833 68.083 C 144.742 68.140,144.667 68.365,144.667 68.583 C 144.667 68.802,144.592 69.027,144.500 69.083 C 144.408 69.140,144.333 69.369,144.333 69.593 C 144.333 69.817,144.262 70.000,144.175 70.000 C 144.088 70.000,143.965 70.452,143.903 71.004 C 143.841 71.556,143.724 72.048,143.645 72.097 C 143.565 72.146,143.500 72.369,143.500 72.593 C 143.500 72.817,143.425 73.000,143.333 73.000 C 143.242 73.000,143.167 73.258,143.167 73.573 C 143.167 73.889,143.092 74.193,143.000 74.250 C 142.908 74.307,142.833 74.607,142.833 74.917 C 142.833 75.227,142.758 75.527,142.667 75.583 C 142.575 75.640,142.500 75.944,142.500 76.260 C 142.500 76.575,142.425 76.833,142.333 76.833 C 142.242 76.833,142.167 77.016,142.167 77.240 C 142.167 77.464,142.092 77.693,142.000 77.750 C 141.908 77.807,141.833 78.032,141.833 78.250 C 141.833 78.468,141.764 78.690,141.678 78.743 C 141.593 78.795,141.472 79.251,141.409 79.755 C 141.346 80.259,141.228 80.712,141.147 80.762 C 141.066 80.812,141.000 81.032,141.000 81.250 C 141.000 81.468,140.925 81.693,140.833 81.750 C 140.742 81.807,140.667 82.111,140.667 82.427 C 140.667 82.742,140.592 83.000,140.500 83.000 C 140.408 83.000,140.333 83.258,140.333 83.573 C 140.333 83.889,140.258 84.193,140.167 84.250 C 140.075 84.307,140.000 84.607,140.000 84.917 C 140.000 85.227,139.925 85.527,139.833 85.583 C 139.742 85.640,139.667 85.869,139.667 86.093 C 139.667 86.317,139.592 86.500,139.500 86.500 C 139.408 86.500,139.333 86.683,139.333 86.907 C 139.333 87.131,139.262 87.358,139.174 87.412 C 139.087 87.466,138.965 87.960,138.902 88.509 C 138.840 89.058,138.724 89.548,138.645 89.597 C 138.565 89.646,138.500 89.902,138.500 90.167 C 138.500 90.431,138.425 90.693,138.333 90.750 C 138.242 90.807,138.167 91.032,138.167 91.250 C 138.167 91.468,138.092 91.693,138.000 91.750 C 137.908 91.807,137.833 92.111,137.833 92.427 C 137.833 92.742,137.758 93.000,137.667 93.000 C 137.575 93.000,137.500 93.258,137.500 93.573 C 137.500 93.889,137.425 94.193,137.333 94.250 C 137.242 94.307,137.167 94.532,137.167 94.750 C 137.167 94.968,137.092 95.193,137.000 95.250 C 136.908 95.307,136.833 95.532,136.833 95.750 C 136.833 95.968,136.763 96.191,136.676 96.244 C 136.590 96.297,136.474 96.696,136.418 97.129 C 136.362 97.562,136.245 98.047,136.158 98.206 C 136.071 98.365,136.000 98.717,136.000 98.988 C 136.000 99.259,135.925 99.527,135.833 99.583 C 135.742 99.640,135.667 99.869,135.667 100.093 C 135.667 100.317,135.592 100.500,135.500 100.500 C 135.408 100.500,135.333 100.758,135.333 101.073 C 135.333 101.389,135.258 101.693,135.167 101.750 C 135.075 101.807,135.000 102.261,135.000 102.760 C 135.000 103.259,134.925 103.667,134.833 103.667 C 134.742 103.667,134.667 104.004,134.667 104.417 C 134.667 104.833,134.588 105.167,134.490 105.167 C 134.393 105.167,134.360 105.242,134.417 105.333 C 134.598 105.627,161.301 105.556,161.596 105.261 C 161.802 105.055,161.841 100.299,161.876 70.969 L 161.917 36.917 171.667 36.830 C 177.029 36.783,181.585 36.680,181.792 36.603 L 182.167 36.461 182.167 22.981 L 182.167 9.500 171.750 9.500 L 161.333 9.500 161.333 10.157 M219.667 15.883 C 219.667 17.515,219.604 18.330,219.467 18.467 C 219.182 18.751,211.151 18.751,210.867 18.467 C 210.281 17.881,210.568 17.833,214.633 17.833 C 219.376 17.833,219.000 18.037,219.000 15.467 C 219.000 13.611,219.019 13.500,219.333 13.500 C 219.651 13.500,219.667 13.611,219.667 15.883 M219.333 20.298 C 219.333 20.599,217.833 21.508,217.346 21.503 C 216.687 21.495,216.500 21.993,216.500 23.750 C 216.500 25.672,216.637 25.935,217.733 26.113 C 218.068 26.167,218.382 26.276,218.431 26.356 C 218.480 26.435,218.703 26.500,218.927 26.500 C 219.273 26.500,219.333 26.579,219.333 27.033 C 219.333 27.448,219.289 27.522,219.133 27.367 C 219.023 27.257,218.686 27.167,218.383 27.167 C 218.081 27.167,217.833 27.092,217.833 27.000 C 217.833 26.908,217.683 26.833,217.500 26.833 C 217.317 26.833,217.167 26.758,217.167 26.667 C 217.167 26.575,217.029 26.500,216.862 26.500 C 216.694 26.500,216.188 26.313,215.737 26.084 C 215.286 25.855,214.752 25.668,214.552 25.667 C 214.351 25.667,214.140 25.592,214.083 25.500 C 214.027 25.408,213.797 25.333,213.573 25.333 C 213.350 25.333,213.167 25.258,213.167 25.167 C 213.167 25.075,212.984 25.000,212.760 25.000 C 212.536 25.000,212.307 24.925,212.250 24.833 C 212.193 24.742,212.016 24.667,211.857 24.667 C 211.166 24.667,210.669 24.266,210.668 23.708 C 210.667 23.297,210.739 23.167,210.967 23.167 C 211.339 23.167,212.164 22.794,212.165 22.625 C 212.166 22.556,212.392 22.500,212.667 22.500 C 212.942 22.500,213.167 22.425,213.167 22.333 C 213.167 22.242,213.309 22.167,213.483 22.167 C 213.657 22.167,214.212 21.949,214.717 21.684 C 215.222 21.419,215.941 21.150,216.316 21.086 C 216.691 21.023,217.041 20.903,217.092 20.819 C 217.144 20.735,217.365 20.667,217.583 20.667 C 217.802 20.667,218.027 20.592,218.083 20.500 C 218.140 20.408,218.365 20.333,218.583 20.333 C 218.802 20.333,219.027 20.258,219.083 20.167 C 219.239 19.916,219.333 19.965,219.333 20.298 M215.000 22.323 C 215.000 22.420,214.817 22.500,214.593 22.500 C 214.369 22.500,214.140 22.575,214.083 22.667 C 214.027 22.758,213.810 22.833,213.601 22.833 C 213.393 22.833,213.167 22.889,213.098 22.957 C 213.030 23.025,212.662 23.156,212.280 23.249 C 211.524 23.432,211.177 24.000,211.821 24.000 C 212.011 24.000,212.167 24.075,212.167 24.167 C 212.167 24.258,212.317 24.333,212.500 24.333 C 212.683 24.333,212.833 24.408,212.833 24.500 C 212.833 24.592,213.016 24.667,213.240 24.667 C 213.464 24.667,213.693 24.742,213.750 24.833 C 213.807 24.925,213.996 25.000,214.171 25.000 C 214.347 25.000,214.763 25.154,215.098 25.341 C 216.086 25.896,216.359 25.517,216.298 23.677 L 216.250 22.250 215.625 22.198 C 215.263 22.168,215.000 22.221,215.000 22.323 M219.125 29.118 C 219.240 29.365,219.333 29.772,219.333 30.023 C 219.333 30.275,219.408 30.527,219.500 30.583 C 219.592 30.640,219.667 31.202,219.667 31.833 C 219.667 32.464,219.592 33.027,219.500 33.083 C 219.408 33.140,219.333 33.365,219.333 33.583 C 219.333 33.802,219.258 34.027,219.167 34.083 C 219.075 34.140,219.000 34.348,219.000 34.546 C 219.000 35.030,217.539 36.500,217.058 36.500 C 216.853 36.500,216.640 36.575,216.583 36.667 C 216.527 36.758,215.964 36.833,215.333 36.833 C 214.702 36.833,214.140 36.758,214.083 36.667 C 214.027 36.575,213.818 36.500,213.620 36.500 C 213.256 36.500,211.501 34.918,211.499 34.589 C 211.499 34.494,211.311 34.048,211.083 33.597 C 210.443 32.337,210.573 29.887,211.302 29.436 C 211.365 29.397,211.417 30.364,211.417 31.585 C 211.417 33.592,211.449 33.835,211.750 34.113 C 211.933 34.283,212.164 34.570,212.264 34.752 C 212.363 34.934,212.607 35.157,212.805 35.248 C 213.004 35.338,213.167 35.470,213.167 35.540 C 213.167 35.609,213.317 35.667,213.500 35.667 C 213.683 35.667,213.833 35.742,213.833 35.833 C 213.833 35.931,214.389 36.000,215.167 36.000 C 215.944 36.000,216.500 35.931,216.500 35.833 C 216.500 35.742,216.666 35.667,216.868 35.667 C 217.257 35.667,218.500 34.573,218.500 34.230 C 218.500 34.119,218.594 33.997,218.708 33.959 C 219.002 33.861,219.109 30.249,218.828 29.910 C 218.678 29.730,218.240 29.667,217.146 29.667 L 215.667 29.667 215.667 30.750 C 215.667 31.722,215.632 31.833,215.333 31.833 C 214.878 31.833,214.830 29.464,215.276 28.971 C 215.782 28.412,218.851 28.528,219.125 29.118 M113.985 36.872 C 114.215 37.178,134.246 37.430,134.058 37.125 C 134.015 37.056,129.537 37.000,124.107 37.000 C 116.444 37.000,114.181 36.953,114.000 36.792 C 113.801 36.615,113.799 36.627,113.985 36.872 M251.250 37.000 C 251.307 37.092,251.611 37.167,251.927 37.167 C 252.242 37.167,252.500 37.242,252.500 37.333 C 252.500 37.425,252.725 37.500,253.000 37.500 C 253.275 37.500,253.500 37.566,253.500 37.647 C 253.500 37.728,253.631 37.842,253.792 37.900 C 255.018 38.343,256.500 40.035,256.500 40.991 C 256.500 41.088,256.575 41.167,256.667 41.167 C 256.758 41.167,256.833 41.350,256.833 41.573 C 256.833 41.797,256.908 42.027,257.000 42.083 C 257.092 42.140,257.167 42.819,257.167 43.593 C 257.167 44.420,257.098 45.000,257.000 45.000 C 256.908 45.000,256.833 45.183,256.833 45.407 C 256.833 45.631,256.758 45.860,256.667 45.917 C 256.575 45.973,256.500 46.194,256.500 46.406 C 256.500 46.619,256.387 46.886,256.250 47.000 C 256.112 47.114,256.000 47.295,256.000 47.402 C 256.000 47.990,253.296 50.000,252.505 50.000 C 252.356 50.000,252.158 50.076,252.065 50.168 C 251.955 50.278,248.150 50.321,240.990 50.293 L 230.083 50.250 230.040 43.708 L 229.996 37.167 233.072 37.167 C 234.942 37.167,236.187 37.101,236.250 37.000 C 236.316 36.893,238.998 36.833,243.750 36.833 C 248.502 36.833,251.184 36.893,251.250 37.000 M181.833 38.407 C 181.833 38.722,181.762 39.025,181.674 39.079 C 181.587 39.133,181.465 39.625,181.403 40.172 C 181.341 40.719,181.225 41.167,181.145 41.167 C 181.065 41.167,181.000 41.350,181.000 41.573 C 181.000 41.797,180.925 42.027,180.833 42.083 C 180.742 42.140,180.667 42.365,180.667 42.583 C 180.667 42.802,180.592 43.027,180.500 43.083 C 180.408 43.140,180.333 43.369,180.333 43.593 C 180.333 43.817,180.258 44.000,180.167 44.000 C 180.075 44.000,180.000 44.183,180.000 44.407 C 180.000 44.631,179.925 44.860,179.833 44.917 C 179.742 44.973,179.667 45.273,179.667 45.583 C 179.667 45.893,179.592 46.193,179.500 46.250 C 179.408 46.307,179.333 46.611,179.333 46.927 C 179.333 47.242,179.262 47.500,179.175 47.500 C 179.088 47.500,178.965 47.952,178.903 48.504 C 178.841 49.056,178.724 49.548,178.645 49.597 C 178.565 49.646,178.500 49.865,178.500 50.083 C 178.500 50.302,178.425 50.527,178.333 50.583 C 178.242 50.640,178.167 50.869,178.167 51.093 C 178.167 51.317,178.092 51.500,178.000 51.500 C 177.908 51.500,177.833 51.683,177.833 51.907 C 177.833 52.131,177.758 52.360,177.667 52.417 C 177.575 52.473,177.500 52.698,177.500 52.917 C 177.500 53.135,177.425 53.360,177.333 53.417 C 177.242 53.473,177.167 53.778,177.167 54.093 C 177.167 54.409,177.092 54.667,177.000 54.667 C 176.908 54.667,176.833 54.850,176.833 55.073 C 176.833 55.297,176.768 55.521,176.689 55.570 C 176.609 55.619,176.493 56.109,176.431 56.658 C 176.369 57.207,176.246 57.701,176.159 57.755 C 176.072 57.809,176.000 58.036,176.000 58.260 C 176.000 58.484,175.925 58.667,175.833 58.667 C 175.742 58.667,175.667 58.850,175.667 59.073 C 175.667 59.297,175.592 59.527,175.500 59.583 C 175.408 59.640,175.333 59.869,175.333 60.093 L 175.333 60.500 182.174 60.500 L 189.015 60.500 188.904 59.875 C 188.843 59.531,188.727 59.179,188.646 59.092 C 188.566 59.005,188.500 58.690,188.500 58.393 C 188.500 58.096,188.425 57.807,188.333 57.750 C 188.242 57.693,188.167 57.464,188.167 57.240 C 188.167 57.016,188.092 56.833,188.000 56.833 C 187.908 56.833,187.833 56.575,187.833 56.260 C 187.833 55.944,187.758 55.640,187.667 55.583 C 187.575 55.527,187.500 55.302,187.500 55.083 C 187.500 54.865,187.425 54.640,187.333 54.583 C 187.242 54.527,187.167 54.297,187.167 54.073 C 187.167 53.850,187.110 53.667,187.041 53.667 C 186.834 53.667,186.535 52.810,186.415 51.875 C 186.353 51.394,186.234 50.958,186.151 50.907 C 186.068 50.856,186.000 50.556,186.000 50.240 C 186.000 49.925,185.925 49.667,185.833 49.667 C 185.742 49.667,185.667 49.409,185.667 49.093 C 185.667 48.778,185.592 48.473,185.500 48.417 C 185.408 48.360,185.333 48.135,185.333 47.917 C 185.333 47.698,185.258 47.473,185.167 47.417 C 185.075 47.360,185.000 47.056,185.000 46.740 C 185.000 46.425,184.944 46.166,184.875 46.165 C 184.708 46.164,184.333 45.341,184.333 44.977 C 184.333 44.817,184.268 44.646,184.189 44.597 C 184.109 44.548,183.993 44.056,183.930 43.504 C 183.868 42.952,183.746 42.500,183.658 42.500 C 183.571 42.500,183.500 42.242,183.500 41.927 C 183.500 41.611,183.425 41.307,183.333 41.250 C 183.242 41.193,183.167 40.968,183.167 40.750 C 183.167 40.532,183.092 40.307,183.000 40.250 C 182.908 40.193,182.833 39.889,182.833 39.573 C 182.833 39.258,182.758 39.000,182.667 39.000 C 182.575 39.000,182.500 38.737,182.500 38.417 C 182.500 37.944,182.437 37.833,182.167 37.833 C 181.898 37.833,181.833 37.944,181.833 38.407 M216.833 38.500 C 216.833 38.592,216.972 38.667,217.141 38.667 C 218.395 38.667,219.667 40.397,219.667 42.102 C 219.667 42.585,219.592 43.027,219.500 43.083 C 219.408 43.140,219.333 43.355,219.333 43.560 C 219.333 43.933,218.599 44.722,217.877 45.125 C 217.164 45.524,211.000 45.412,211.000 45.000 C 211.000 44.678,211.111 44.667,214.250 44.667 C 216.306 44.667,217.500 44.605,217.500 44.500 C 217.500 44.408,217.620 44.333,217.766 44.333 C 218.087 44.333,219.000 43.394,219.000 43.063 C 219.000 42.934,219.093 42.680,219.207 42.498 C 219.371 42.234,219.371 42.099,219.207 41.836 C 219.093 41.654,219.000 41.305,219.000 41.062 C 219.000 40.581,218.182 39.667,217.752 39.667 C 217.613 39.667,217.500 39.592,217.500 39.500 C 217.500 39.395,216.306 39.333,214.250 39.333 L 211.000 39.333 211.000 38.833 L 211.000 38.333 213.917 38.333 C 215.750 38.333,216.833 38.395,216.833 38.500 M211.333 48.177 L 211.333 49.667 215.500 49.667 C 218.167 49.667,219.667 49.727,219.667 49.833 C 219.667 49.925,219.582 50.000,219.480 50.000 C 219.350 50.000,219.357 50.077,219.500 50.250 C 219.683 50.471,219.246 50.500,215.720 50.500 C 211.078 50.500,211.333 50.402,211.333 52.190 C 211.333 52.900,211.258 53.527,211.167 53.583 C 211.058 53.651,211.000 52.443,211.000 50.083 C 211.000 47.724,211.058 46.516,211.167 46.583 C 211.258 46.640,211.333 47.357,211.333 48.177 M219.637 54.940 C 219.608 55.091,219.471 55.267,219.333 55.331 C 219.196 55.396,218.916 55.535,218.711 55.641 C 218.506 55.747,218.191 55.833,218.012 55.833 C 217.833 55.833,217.640 55.908,217.583 56.000 C 217.527 56.092,217.320 56.167,217.123 56.167 C 216.275 56.167,215.667 57.120,215.667 58.449 L 215.667 59.667 217.480 59.667 C 218.781 59.667,219.344 59.729,219.476 59.887 C 219.918 60.420,219.353 60.500,215.133 60.500 L 211.000 60.500 211.000 59.917 C 211.000 59.596,210.925 59.333,210.833 59.333 C 210.742 59.333,210.667 58.925,210.667 58.427 C 210.667 57.928,210.742 57.473,210.833 57.417 C 210.925 57.360,211.000 57.056,211.000 56.740 C 211.000 56.425,211.075 56.167,211.167 56.167 C 211.258 56.167,211.333 56.066,211.333 55.942 C 211.333 54.720,213.507 54.610,214.714 55.771 C 215.488 56.517,215.519 56.530,215.797 56.223 C 216.221 55.756,216.943 55.333,217.318 55.333 C 217.499 55.333,217.693 55.258,217.750 55.167 C 217.807 55.075,218.107 55.000,218.417 55.000 C 218.727 55.000,219.027 54.925,219.083 54.833 C 219.254 54.557,219.696 54.643,219.637 54.940 M212.250 55.817 C 211.525 56.240,211.339 56.746,211.336 58.292 L 211.333 59.667 213.167 59.667 L 215.000 59.667 215.000 58.250 C 215.000 57.417,214.931 56.833,214.833 56.833 C 214.742 56.833,214.667 56.715,214.667 56.571 C 214.667 55.724,213.195 55.264,212.250 55.817 M216.250 62.000 C 216.307 62.092,216.487 62.167,216.651 62.167 C 218.666 62.167,220.500 66.227,219.407 68.266 C 218.853 69.300,218.563 69.725,218.328 69.850 C 217.600 70.234,216.914 70.500,216.651 70.500 C 216.487 70.500,216.307 70.575,216.250 70.667 C 216.193 70.758,215.739 70.833,215.240 70.833 C 214.741 70.833,214.333 70.758,214.333 70.667 C 214.333 70.575,214.150 70.500,213.927 70.500 C 213.703 70.500,213.473 70.425,213.417 70.333 C 213.360 70.242,213.146 70.167,212.941 70.167 C 212.335 70.167,211.000 68.570,211.000 67.845 C 211.000 67.666,210.925 67.473,210.833 67.417 C 210.742 67.360,210.667 66.873,210.667 66.333 C 210.667 65.794,210.742 65.307,210.833 65.250 C 210.925 65.193,211.000 65.000,211.000 64.821 C 211.000 63.864,212.715 62.167,213.682 62.167 C 213.846 62.167,214.027 62.092,214.083 62.000 C 214.140 61.908,214.627 61.833,215.167 61.833 C 215.706 61.833,216.193 61.908,216.250 62.000 M213.833 62.833 C 213.833 62.925,213.713 63.000,213.567 63.000 C 213.420 63.000,213.099 63.206,212.853 63.458 C 212.608 63.710,212.259 63.999,212.078 64.100 C 210.814 64.805,211.208 69.000,212.539 69.000 C 212.660 69.000,212.868 69.150,213.000 69.333 C 213.132 69.517,213.374 69.667,213.537 69.667 C 213.700 69.667,213.833 69.742,213.833 69.833 C 213.833 69.931,214.389 70.000,215.167 70.000 C 215.944 70.000,216.500 69.931,216.500 69.833 C 216.500 69.742,216.650 69.667,216.833 69.667 C 217.017 69.667,217.167 69.592,217.167 69.500 C 217.167 69.408,217.282 69.333,217.422 69.333 C 217.563 69.333,217.957 69.055,218.297 68.714 L 218.917 68.094 218.917 66.389 L 218.917 64.683 218.258 64.008 C 217.895 63.637,217.502 63.333,217.383 63.333 C 217.264 63.333,217.167 63.258,217.167 63.167 C 217.167 63.075,217.017 63.000,216.833 63.000 C 216.650 63.000,216.500 62.925,216.500 62.833 C 216.500 62.736,215.944 62.667,215.167 62.667 C 214.389 62.667,213.833 62.736,213.833 62.833 M213.833 72.333 C 213.833 72.425,214.006 72.500,214.217 72.500 C 214.600 72.500,215.382 73.224,215.792 73.956 C 215.906 74.161,216.000 74.877,216.000 75.548 C 216.000 77.113,216.061 77.167,217.867 77.167 C 219.059 77.167,219.333 77.213,219.333 77.417 C 219.333 77.632,218.759 77.667,215.167 77.667 L 211.000 77.667 211.000 75.748 C 211.000 74.523,211.075 73.694,211.208 73.456 C 211.598 72.759,211.884 72.500,212.266 72.500 C 212.476 72.500,212.693 72.425,212.750 72.333 C 212.807 72.242,213.074 72.167,213.343 72.167 C 213.613 72.167,213.833 72.242,213.833 72.333 M212.698 72.912 C 211.442 73.605,210.712 76.145,211.533 76.967 C 211.951 77.384,214.790 77.225,215.258 76.758 C 215.815 76.200,215.713 74.341,215.125 74.335 C 215.056 74.334,215.000 74.217,215.000 74.076 C 215.000 73.637,213.785 72.645,213.294 72.683 C 213.178 72.692,212.910 72.795,212.698 72.912 M219.667 82.717 C 219.667 83.359,219.416 83.667,218.893 83.667 C 218.688 83.667,218.473 83.742,218.417 83.833 C 218.360 83.925,218.135 84.000,217.917 84.000 C 217.698 84.000,217.473 84.075,217.417 84.167 C 217.360 84.258,217.161 84.333,216.975 84.333 C 216.377 84.333,216.012 84.981,216.006 86.054 C 215.998 87.408,216.129 87.500,218.071 87.500 C 219.625 87.500,219.667 87.510,219.667 87.883 C 219.667 88.639,219.507 88.667,215.133 88.667 L 211.000 88.667 211.000 88.093 C 211.000 87.778,210.925 87.473,210.833 87.417 C 210.742 87.360,210.667 86.798,210.667 86.167 C 210.667 85.536,210.742 84.973,210.833 84.917 C 210.925 84.860,211.000 84.577,211.000 84.289 C 211.000 83.019,213.338 81.869,214.196 82.718 C 214.318 82.837,214.548 82.985,214.708 83.046 C 214.869 83.107,215.000 83.271,215.000 83.411 C 215.000 83.747,215.725 83.748,216.003 83.414 C 216.321 83.030,217.152 82.703,218.125 82.580 C 218.606 82.519,219.000 82.401,219.000 82.318 C 219.000 82.235,219.150 82.167,219.333 82.167 C 219.599 82.167,219.667 82.278,219.667 82.717 M212.833 83.833 C 212.833 83.925,212.715 84.000,212.571 84.000 C 212.020 84.000,211.500 84.915,211.500 85.883 C 211.500 87.038,212.130 87.532,213.518 87.467 L 214.583 87.417 214.633 86.194 C 214.689 84.799,214.475 84.158,213.858 83.867 C 213.342 83.623,212.833 83.607,212.833 83.833 M182.167 88.293 L 197.417 88.337 197.625 88.785 C 197.740 89.032,197.833 89.364,197.833 89.523 C 197.833 89.683,197.901 89.856,197.984 89.907 C 198.173 90.024,198.044 89.422,197.726 88.708 L 197.484 88.167 182.201 88.207 L 166.917 88.248 182.167 88.293 M219.333 90.833 L 219.333 91.500 215.167 91.500 L 211.000 91.500 211.000 90.833 L 211.000 90.167 215.167 90.167 L 219.333 90.167 219.333 90.833 M165.944 91.111 C 165.883 91.172,165.833 91.397,165.833 91.611 C 165.833 91.825,165.758 92.000,165.667 92.000 C 165.575 92.000,165.500 92.223,165.500 92.495 C 165.500 92.767,165.362 93.236,165.194 93.537 C 164.855 94.141,164.633 95.040,164.857 94.902 C 164.936 94.853,165.000 94.670,165.000 94.495 C 165.000 94.320,165.150 93.910,165.333 93.583 C 165.517 93.257,165.667 92.809,165.667 92.588 C 165.667 92.367,165.733 92.145,165.814 92.095 C 165.895 92.045,165.995 91.778,166.035 91.502 C 166.115 90.960,166.111 90.944,165.944 91.111 M219.333 93.595 C 219.333 94.350,219.082 94.596,218.157 94.748 C 216.961 94.944,216.833 95.151,216.833 96.888 C 216.833 98.534,217.041 99.000,217.776 99.000 C 217.991 99.000,218.167 99.075,218.167 99.167 C 218.167 99.258,218.317 99.333,218.500 99.333 C 218.683 99.333,218.833 99.408,218.833 99.500 C 218.833 99.592,218.946 99.667,219.083 99.667 C 219.261 99.667,219.333 99.846,219.333 100.283 C 219.333 100.763,219.289 100.856,219.133 100.700 C 219.023 100.590,218.765 100.500,218.560 100.500 C 218.354 100.500,218.140 100.425,218.083 100.333 C 218.027 100.242,217.797 100.167,217.573 100.167 C 217.350 100.167,217.167 100.092,217.167 100.000 C 217.167 99.908,216.984 99.833,216.760 99.833 C 216.536 99.833,216.311 99.765,216.260 99.682 C 216.208 99.599,215.773 99.481,215.291 99.419 C 214.357 99.298,213.500 98.999,213.500 98.793 C 213.500 98.723,213.350 98.667,213.167 98.667 C 212.983 98.667,212.833 98.592,212.833 98.500 C 212.833 98.408,212.650 98.333,212.427 98.333 C 212.203 98.333,211.973 98.258,211.917 98.167 C 211.860 98.075,211.631 98.000,211.407 98.000 C 211.019 98.000,211.000 97.952,211.001 96.958 C 211.003 95.867,211.302 95.500,212.190 95.500 C 212.350 95.500,212.521 95.435,212.570 95.355 C 212.619 95.276,212.952 95.164,213.311 95.106 C 213.669 95.049,214.391 94.777,214.915 94.501 C 215.439 94.225,216.005 94.000,216.174 94.000 C 216.342 94.000,216.527 93.925,216.583 93.833 C 216.640 93.742,216.869 93.667,217.093 93.667 C 217.317 93.667,217.500 93.592,217.500 93.500 C 217.500 93.408,217.725 93.333,218.000 93.333 C 218.275 93.333,218.500 93.258,218.500 93.167 C 218.500 93.075,218.688 93.000,218.917 93.000 C 219.283 93.000,219.333 93.071,219.333 93.595 M199.293 94.917 C 199.336 95.146,199.401 95.333,199.436 95.333 C 199.471 95.333,199.500 95.146,199.500 94.917 C 199.500 94.688,199.435 94.500,199.356 94.500 C 199.277 94.500,199.249 94.688,199.293 94.917 M199.689 95.865 C 199.677 96.112,199.742 96.360,199.833 96.417 C 199.925 96.473,200.000 96.688,200.000 96.893 C 200.000 97.099,200.069 97.338,200.153 97.425 C 200.236 97.512,200.339 97.771,200.380 98.000 C 200.455 98.416,200.455 98.416,200.477 97.968 C 200.490 97.721,200.425 97.473,200.333 97.417 C 200.242 97.360,200.167 97.146,200.167 96.940 C 200.167 96.735,200.098 96.495,200.014 96.408 C 199.930 96.321,199.828 96.063,199.787 95.833 C 199.712 95.417,199.712 95.417,199.689 95.865 M214.083 96.000 C 213.625 96.258,213.038 96.477,212.780 96.485 C 211.968 96.511,211.445 97.333,212.240 97.333 C 212.464 97.333,212.693 97.408,212.750 97.500 C 212.807 97.592,213.032 97.667,213.250 97.667 C 213.468 97.667,213.693 97.742,213.750 97.833 C 213.807 97.925,214.036 98.000,214.260 98.000 C 214.484 98.000,214.667 98.075,214.667 98.167 C 214.667 98.422,215.826 98.364,216.095 98.095 C 216.243 97.947,216.333 97.515,216.333 96.954 C 216.333 95.441,215.616 95.136,214.083 96.000 M163.023 100.865 C 163.010 101.112,162.925 101.360,162.833 101.417 C 162.742 101.473,162.667 101.698,162.667 101.917 C 162.667 102.135,162.601 102.354,162.520 102.404 C 162.319 102.528,162.178 103.333,162.356 103.333 C 162.435 103.333,162.500 103.150,162.500 102.927 C 162.500 102.703,162.575 102.473,162.667 102.417 C 162.758 102.360,162.833 102.146,162.833 101.940 C 162.833 101.735,162.915 101.485,163.014 101.386 C 163.114 101.286,163.161 101.028,163.120 100.811 C 163.050 100.442,163.044 100.445,163.023 100.865 M201.799 103.284 C 201.913 103.880,202.331 104.677,202.332 104.302 C 202.333 104.146,202.258 103.973,202.167 103.917 C 202.075 103.860,202.000 103.635,202.000 103.417 C 202.000 103.198,201.936 102.980,201.857 102.932 C 201.779 102.883,201.753 103.042,201.799 103.284 " stroke="none" fill="#bcbcbc" fill-rule="evenodd"></path><path id="path1" d="M113.833 23.063 C 113.833 34.210,113.873 36.659,114.057 36.812 C 114.215 36.942,117.207 37.010,124.182 37.040 L 134.083 37.083 134.125 71.125 C 134.163 101.230,134.196 105.167,134.417 105.167 C 134.602 105.167,134.667 104.972,134.667 104.417 C 134.667 104.004,134.742 103.667,134.833 103.667 C 134.925 103.667,135.000 103.259,135.000 102.760 C 135.000 102.261,135.075 101.807,135.167 101.750 C 135.258 101.693,135.333 101.389,135.333 101.073 C 135.333 100.758,135.408 100.500,135.500 100.500 C 135.592 100.500,135.667 100.317,135.667 100.093 C 135.667 99.869,135.742 99.640,135.833 99.583 C 135.925 99.527,136.000 99.259,136.000 98.988 C 136.000 98.717,136.071 98.365,136.158 98.206 C 136.245 98.047,136.362 97.562,136.418 97.129 C 136.474 96.696,136.590 96.297,136.676 96.244 C 136.763 96.191,136.833 95.968,136.833 95.750 C 136.833 95.532,136.908 95.307,137.000 95.250 C 137.092 95.193,137.167 94.968,137.167 94.750 C 137.167 94.532,137.242 94.307,137.333 94.250 C 137.425 94.193,137.500 93.889,137.500 93.573 C 137.500 93.258,137.575 93.000,137.667 93.000 C 137.758 93.000,137.833 92.742,137.833 92.427 C 137.833 92.111,137.908 91.807,138.000 91.750 C 138.092 91.693,138.167 91.468,138.167 91.250 C 138.167 91.032,138.242 90.807,138.333 90.750 C 138.425 90.693,138.500 90.431,138.500 90.167 C 138.500 89.902,138.565 89.646,138.645 89.597 C 138.724 89.548,138.840 89.058,138.902 88.509 C 138.965 87.960,139.087 87.466,139.174 87.412 C 139.262 87.358,139.333 87.131,139.333 86.907 C 139.333 86.683,139.408 86.500,139.500 86.500 C 139.592 86.500,139.667 86.317,139.667 86.093 C 139.667 85.869,139.742 85.640,139.833 85.583 C 139.925 85.527,140.000 85.227,140.000 84.917 C 140.000 84.607,140.075 84.307,140.167 84.250 C 140.258 84.193,140.333 83.889,140.333 83.573 C 140.333 83.258,140.408 83.000,140.500 83.000 C 140.592 83.000,140.667 82.742,140.667 82.427 C 140.667 82.111,140.742 81.807,140.833 81.750 C 140.925 81.693,141.000 81.468,141.000 81.250 C 141.000 81.032,141.066 80.812,141.147 80.762 C 141.228 80.712,141.346 80.259,141.409 79.755 C 141.472 79.251,141.593 78.795,141.678 78.743 C 141.764 78.690,141.833 78.468,141.833 78.250 C 141.833 78.032,141.908 77.807,142.000 77.750 C 142.092 77.693,142.167 77.464,142.167 77.240 C 142.167 77.016,142.242 76.833,142.333 76.833 C 142.425 76.833,142.500 76.575,142.500 76.260 C 142.500 75.944,142.575 75.640,142.667 75.583 C 142.758 75.527,142.833 75.227,142.833 74.917 C 142.833 74.607,142.908 74.307,143.000 74.250 C 143.092 74.193,143.167 73.889,143.167 73.573 C 143.167 73.258,143.242 73.000,143.333 73.000 C 143.425 73.000,143.500 72.817,143.500 72.593 C 143.500 72.369,143.565 72.146,143.645 72.097 C 143.724 72.048,143.841 71.556,143.903 71.004 C 143.965 70.452,144.088 70.000,144.175 70.000 C 144.262 70.000,144.333 69.817,144.333 69.593 C 144.333 69.369,144.408 69.140,144.500 69.083 C 144.592 69.027,144.667 68.802,144.667 68.583 C 144.667 68.365,144.742 68.140,144.833 68.083 C 144.925 68.027,145.000 67.722,145.000 67.407 C 145.000 67.091,145.075 66.833,145.167 66.833 C 145.258 66.833,145.333 66.575,145.333 66.260 C 145.333 65.944,145.408 65.640,145.500 65.583 C 145.592 65.527,145.667 65.227,145.667 64.917 C 145.667 64.607,145.742 64.307,145.833 64.250 C 145.925 64.193,146.000 63.964,146.000 63.740 C 146.000 63.516,146.065 63.333,146.145 63.333 C 146.225 63.333,146.341 62.886,146.403 62.338 C 146.465 61.791,146.587 61.299,146.674 61.245 C 146.762 61.191,146.833 60.968,146.833 60.750 C 146.833 60.532,146.908 60.307,147.000 60.250 C 147.092 60.193,147.167 59.964,147.167 59.740 C 147.167 59.516,147.242 59.333,147.333 59.333 C 147.425 59.333,147.500 59.075,147.500 58.760 C 147.500 58.444,147.575 58.140,147.667 58.083 C 147.758 58.027,147.833 57.722,147.833 57.407 C 147.833 57.091,147.908 56.833,148.000 56.833 C 148.092 56.833,148.167 56.575,148.167 56.260 C 148.167 55.944,148.238 55.642,148.326 55.588 C 148.413 55.534,148.535 55.040,148.598 54.491 C 148.660 53.942,148.776 53.452,148.855 53.403 C 148.935 53.354,149.000 53.131,149.000 52.907 C 149.000 52.683,149.075 52.500,149.167 52.500 C 149.258 52.500,149.333 52.317,149.333 52.093 C 149.333 51.869,149.408 51.640,149.500 51.583 C 149.592 51.527,149.667 51.302,149.667 51.083 C 149.667 50.865,149.742 50.640,149.833 50.583 C 149.925 50.527,150.000 50.222,150.000 49.907 C 150.000 49.591,150.075 49.333,150.167 49.333 C 150.258 49.333,150.333 49.075,150.333 48.760 C 150.333 48.444,150.408 48.140,150.500 48.083 C 150.592 48.027,150.667 47.727,150.667 47.417 C 150.667 47.107,150.742 46.807,150.833 46.750 C 150.925 46.693,151.000 46.464,151.000 46.240 C 151.000 46.016,151.065 45.833,151.145 45.833 C 151.225 45.833,151.341 45.386,151.403 44.838 C 151.465 44.291,151.587 43.799,151.674 43.745 C 151.762 43.691,151.833 43.468,151.833 43.250 C 151.833 43.032,151.908 42.807,152.000 42.750 C 152.092 42.693,152.167 42.464,152.167 42.240 C 152.167 42.016,152.242 41.833,152.333 41.833 C 152.425 41.833,152.500 41.575,152.500 41.260 C 152.500 40.944,152.575 40.640,152.667 40.583 C 152.758 40.527,152.833 40.222,152.833 39.907 C 152.833 39.591,152.908 39.333,153.000 39.333 C 153.092 39.333,153.167 39.075,153.167 38.760 C 153.167 38.444,153.242 38.140,153.333 38.083 C 153.425 38.027,153.500 37.802,153.500 37.583 C 153.500 37.365,153.565 37.146,153.645 37.097 C 153.724 37.048,153.841 36.556,153.903 36.004 C 153.965 35.452,154.088 35.000,154.175 35.000 C 154.262 35.000,154.333 34.817,154.333 34.593 C 154.333 34.369,154.408 34.140,154.500 34.083 C 154.592 34.027,154.667 33.802,154.667 33.583 C 154.667 33.365,154.742 33.140,154.833 33.083 C 154.925 33.027,155.000 32.722,155.000 32.407 C 155.000 32.091,155.075 31.833,155.167 31.833 C 155.258 31.833,155.333 31.575,155.333 31.260 C 155.333 30.944,155.408 30.640,155.500 30.583 C 155.592 30.527,155.667 30.259,155.667 29.988 C 155.667 29.717,155.733 29.365,155.814 29.206 C 156.182 28.483,156.322 28.022,156.423 27.209 C 156.483 26.727,156.599 26.292,156.682 26.240 C 156.765 26.189,156.833 26.000,156.833 25.821 C 156.833 25.642,156.908 25.346,157.000 25.164 C 157.092 24.982,157.242 24.684,157.333 24.502 C 157.425 24.320,157.500 23.950,157.500 23.679 C 157.500 23.408,157.575 23.140,157.667 23.083 C 157.758 23.027,157.833 22.722,157.833 22.407 C 157.833 22.091,157.908 21.833,158.000 21.833 C 158.092 21.833,158.167 21.575,158.167 21.260 C 158.167 20.944,158.242 20.640,158.333 20.583 C 158.425 20.527,158.500 20.302,158.500 20.083 C 158.500 19.865,158.566 19.645,158.647 19.595 C 158.728 19.545,158.846 19.092,158.909 18.588 C 158.972 18.084,159.093 17.629,159.178 17.576 C 159.264 17.523,159.333 17.302,159.333 17.083 C 159.333 16.865,159.408 16.640,159.500 16.583 C 159.592 16.527,159.667 16.222,159.667 15.907 C 159.667 15.591,159.742 15.333,159.833 15.333 C 159.925 15.333,160.000 15.150,160.000 14.927 C 160.000 14.703,160.075 14.473,160.167 14.417 C 160.258 14.360,160.333 14.060,160.333 13.750 C 160.333 13.440,160.408 13.140,160.500 13.083 C 160.592 13.027,160.667 12.722,160.667 12.407 C 160.667 12.091,160.742 11.833,160.833 11.833 C 160.925 11.833,161.000 11.650,161.000 11.427 C 161.000 11.203,161.075 10.973,161.167 10.917 C 161.258 10.860,161.333 10.518,161.333 10.157 L 161.333 9.500 137.583 9.500 L 113.833 9.500 113.833 23.063 M182.167 22.981 L 182.167 36.461 181.792 36.603 C 181.585 36.680,177.029 36.783,171.667 36.830 L 161.917 36.917 161.875 70.542 C 161.851 89.636,161.895 104.167,161.978 104.167 C 162.058 104.167,162.173 103.795,162.233 103.340 C 162.294 102.886,162.416 102.469,162.505 102.414 C 162.594 102.359,162.667 102.135,162.667 101.917 C 162.667 101.698,162.742 101.473,162.833 101.417 C 162.925 101.360,163.000 101.131,163.000 100.907 C 163.000 100.683,163.075 100.500,163.167 100.500 C 163.258 100.500,163.333 100.275,163.333 100.000 C 163.333 99.725,163.408 99.500,163.500 99.500 C 163.592 99.500,163.667 99.242,163.667 98.927 C 163.667 98.611,163.742 98.307,163.833 98.250 C 163.925 98.193,164.000 97.964,164.000 97.740 C 164.000 97.516,164.075 97.333,164.167 97.333 C 164.258 97.333,164.333 97.033,164.333 96.667 C 164.333 96.300,164.398 96.000,164.477 96.000 C 164.556 96.000,164.669 95.589,164.728 95.086 C 164.787 94.584,164.985 93.907,165.168 93.581 C 165.350 93.256,165.500 92.767,165.500 92.495 C 165.500 92.223,165.575 92.000,165.667 92.000 C 165.758 92.000,165.833 91.817,165.833 91.593 C 165.833 91.369,165.908 91.140,166.000 91.083 C 166.092 91.027,166.167 90.722,166.167 90.407 C 166.167 90.091,166.242 89.833,166.333 89.833 C 166.425 89.833,166.500 89.608,166.500 89.333 C 166.500 89.058,166.566 88.833,166.647 88.833 C 166.728 88.833,166.834 88.683,166.882 88.500 C 166.968 88.170,167.109 88.167,182.222 88.167 L 197.476 88.167 197.740 88.696 C 197.885 88.988,198.051 89.625,198.108 90.113 C 198.166 90.601,198.277 91.000,198.356 91.000 C 198.435 91.000,198.500 91.300,198.500 91.667 C 198.500 92.033,198.575 92.333,198.667 92.333 C 198.758 92.333,198.833 92.591,198.833 92.907 C 198.833 93.222,198.908 93.527,199.000 93.583 C 199.092 93.640,199.167 93.869,199.167 94.093 C 199.167 94.317,199.242 94.500,199.333 94.500 C 199.425 94.500,199.500 94.725,199.500 95.000 C 199.500 95.275,199.575 95.500,199.667 95.500 C 199.758 95.500,199.833 95.683,199.833 95.907 C 199.833 96.131,199.908 96.360,200.000 96.417 C 200.092 96.473,200.167 96.698,200.167 96.917 C 200.167 97.135,200.238 97.358,200.326 97.412 C 200.413 97.466,200.535 97.958,200.597 98.505 C 200.659 99.052,200.775 99.500,200.855 99.500 C 200.935 99.500,201.000 99.758,201.000 100.073 C 201.000 100.389,201.075 100.693,201.167 100.750 C 201.258 100.807,201.333 101.036,201.333 101.260 C 201.333 101.484,201.408 101.667,201.500 101.667 C 201.592 101.667,201.667 101.925,201.667 102.240 C 201.667 102.556,201.742 102.860,201.833 102.917 C 201.925 102.973,202.000 103.157,202.000 103.324 C 202.000 103.492,202.112 103.843,202.249 104.106 C 202.470 104.530,202.498 99.316,202.499 57.042 L 202.500 9.500 192.333 9.500 L 182.167 9.500 182.167 22.981 M219.000 15.467 C 219.000 18.037,219.376 17.833,214.633 17.833 C 210.568 17.833,210.281 17.881,210.867 18.467 C 211.151 18.751,219.182 18.751,219.467 18.467 C 219.859 18.074,219.736 13.500,219.333 13.500 C 219.019 13.500,219.000 13.611,219.000 15.467 M219.083 20.167 C 219.027 20.258,218.802 20.333,218.583 20.333 C 218.365 20.333,218.140 20.408,218.083 20.500 C 218.027 20.592,217.802 20.667,217.583 20.667 C 217.365 20.667,217.144 20.735,217.092 20.819 C 217.041 20.903,216.691 21.023,216.316 21.086 C 215.941 21.150,215.222 21.419,214.717 21.684 C 214.212 21.949,213.657 22.167,213.483 22.167 C 213.309 22.167,213.167 22.242,213.167 22.333 C 213.167 22.425,212.942 22.500,212.667 22.500 C 212.392 22.500,212.166 22.556,212.165 22.625 C 212.164 22.794,211.339 23.167,210.967 23.167 C 210.739 23.167,210.667 23.297,210.668 23.708 C 210.669 24.266,211.166 24.667,211.857 24.667 C 212.016 24.667,212.193 24.742,212.250 24.833 C 212.307 24.925,212.536 25.000,212.760 25.000 C 212.984 25.000,213.167 25.075,213.167 25.167 C 213.167 25.258,213.350 25.333,213.573 25.333 C 213.797 25.333,214.027 25.408,214.083 25.500 C 214.140 25.592,214.351 25.667,214.552 25.667 C 214.752 25.668,215.286 25.855,215.737 26.084 C 216.188 26.313,216.694 26.500,216.862 26.500 C 217.029 26.500,217.167 26.575,217.167 26.667 C 217.167 26.758,217.317 26.833,217.500 26.833 C 217.683 26.833,217.833 26.908,217.833 27.000 C 217.833 27.092,218.081 27.167,218.383 27.167 C 218.686 27.167,219.023 27.257,219.133 27.367 C 219.289 27.522,219.333 27.448,219.333 27.033 C 219.333 26.579,219.273 26.500,218.927 26.500 C 218.703 26.500,218.480 26.435,218.431 26.356 C 218.382 26.276,218.068 26.167,217.733 26.113 C 216.637 25.935,216.500 25.672,216.500 23.750 C 216.500 21.993,216.687 21.495,217.346 21.503 C 217.833 21.508,219.333 20.599,219.333 20.298 C 219.333 19.965,219.239 19.916,219.083 20.167 M216.298 23.677 C 216.359 25.517,216.086 25.896,215.098 25.341 C 214.763 25.154,214.347 25.000,214.171 25.000 C 213.996 25.000,213.807 24.925,213.750 24.833 C 213.693 24.742,213.464 24.667,213.240 24.667 C 213.016 24.667,212.833 24.592,212.833 24.500 C 212.833 24.408,212.683 24.333,212.500 24.333 C 212.317 24.333,212.167 24.258,212.167 24.167 C 212.167 24.075,212.011 24.000,211.821 24.000 C 211.177 24.000,211.524 23.432,212.280 23.249 C 212.662 23.156,213.030 23.025,213.098 22.957 C 213.167 22.889,213.393 22.833,213.601 22.833 C 213.810 22.833,214.027 22.758,214.083 22.667 C 214.140 22.575,214.369 22.500,214.593 22.500 C 214.817 22.500,215.000 22.420,215.000 22.323 C 215.000 22.221,215.263 22.168,215.625 22.198 L 216.250 22.250 216.298 23.677 M215.276 28.971 C 214.830 29.464,214.878 31.833,215.333 31.833 C 215.632 31.833,215.667 31.722,215.667 30.750 L 215.667 29.667 217.146 29.667 C 218.240 29.667,218.678 29.730,218.828 29.910 C 219.109 30.249,219.002 33.861,218.708 33.959 C 218.594 33.997,218.500 34.119,218.500 34.230 C 218.500 34.573,217.257 35.667,216.868 35.667 C 216.666 35.667,216.500 35.742,216.500 35.833 C 216.500 35.931,215.944 36.000,215.167 36.000 C 214.389 36.000,213.833 35.931,213.833 35.833 C 213.833 35.742,213.683 35.667,213.500 35.667 C 213.317 35.667,213.167 35.609,213.167 35.540 C 213.167 35.470,213.004 35.338,212.805 35.248 C 212.607 35.157,212.363 34.934,212.264 34.752 C 212.164 34.570,211.933 34.283,211.750 34.113 C 211.449 33.835,211.417 33.592,211.417 31.585 C 211.417 30.364,211.365 29.397,211.302 29.436 C 210.573 29.887,210.443 32.337,211.083 33.597 C 211.311 34.048,211.499 34.494,211.499 34.589 C 211.501 34.918,213.256 36.500,213.620 36.500 C 213.818 36.500,214.027 36.575,214.083 36.667 C 214.140 36.758,214.702 36.833,215.333 36.833 C 215.964 36.833,216.527 36.758,216.583 36.667 C 216.640 36.575,216.853 36.500,217.058 36.500 C 217.539 36.500,219.000 35.030,219.000 34.546 C 219.000 34.348,219.075 34.140,219.167 34.083 C 219.258 34.027,219.333 33.802,219.333 33.583 C 219.333 33.365,219.408 33.140,219.500 33.083 C 219.592 33.027,219.667 32.464,219.667 31.833 C 219.667 31.202,219.592 30.640,219.500 30.583 C 219.408 30.527,219.333 30.275,219.333 30.023 C 219.333 28.828,219.088 28.669,217.234 28.668 C 215.815 28.667,215.509 28.714,215.276 28.971 M236.250 37.000 C 236.187 37.101,234.942 37.167,233.072 37.167 L 229.996 37.167 230.040 43.708 L 230.083 50.250 240.990 50.293 C 248.150 50.321,251.955 50.278,252.065 50.168 C 252.158 50.076,252.356 50.000,252.505 50.000 C 253.296 50.000,256.000 47.990,256.000 47.402 C 256.000 47.295,256.112 47.114,256.250 47.000 C 256.387 46.886,256.500 46.619,256.500 46.406 C 256.500 46.194,256.575 45.973,256.667 45.917 C 256.758 45.860,256.833 45.631,256.833 45.407 C 256.833 45.183,256.908 45.000,257.000 45.000 C 257.098 45.000,257.167 44.420,257.167 43.593 C 257.167 42.819,257.092 42.140,257.000 42.083 C 256.908 42.027,256.833 41.797,256.833 41.573 C 256.833 41.350,256.758 41.167,256.667 41.167 C 256.575 41.167,256.500 41.088,256.500 40.991 C 256.500 40.035,255.018 38.343,253.792 37.900 C 253.631 37.842,253.500 37.728,253.500 37.647 C 253.500 37.566,253.275 37.500,253.000 37.500 C 252.725 37.500,252.500 37.425,252.500 37.333 C 252.500 37.242,252.242 37.167,251.927 37.167 C 251.611 37.167,251.307 37.092,251.250 37.000 C 251.184 36.893,248.502 36.833,243.750 36.833 C 238.998 36.833,236.316 36.893,236.250 37.000 M182.500 38.417 C 182.500 38.737,182.575 39.000,182.667 39.000 C 182.758 39.000,182.833 39.258,182.833 39.573 C 182.833 39.889,182.908 40.193,183.000 40.250 C 183.092 40.307,183.167 40.532,183.167 40.750 C 183.167 40.968,183.242 41.193,183.333 41.250 C 183.425 41.307,183.500 41.611,183.500 41.927 C 183.500 42.242,183.571 42.500,183.658 42.500 C 183.746 42.500,183.868 42.952,183.930 43.504 C 183.993 44.056,184.109 44.548,184.189 44.597 C 184.268 44.646,184.333 44.817,184.333 44.977 C 184.333 45.341,184.708 46.164,184.875 46.165 C 184.944 46.166,185.000 46.425,185.000 46.740 C 185.000 47.056,185.075 47.360,185.167 47.417 C 185.258 47.473,185.333 47.698,185.333 47.917 C 185.333 48.135,185.408 48.360,185.500 48.417 C 185.592 48.473,185.667 48.778,185.667 49.093 C 185.667 49.409,185.742 49.667,185.833 49.667 C 185.925 49.667,186.000 49.925,186.000 50.240 C 186.000 50.556,186.068 50.856,186.151 50.907 C 186.234 50.958,186.353 51.394,186.415 51.875 C 186.535 52.810,186.834 53.667,187.041 53.667 C 187.110 53.667,187.167 53.850,187.167 54.073 C 187.167 54.297,187.242 54.527,187.333 54.583 C 187.425 54.640,187.500 54.865,187.500 55.083 C 187.500 55.302,187.575 55.527,187.667 55.583 C 187.758 55.640,187.833 55.944,187.833 56.260 C 187.833 56.575,187.908 56.833,188.000 56.833 C 188.092 56.833,188.167 57.016,188.167 57.240 C 188.167 57.464,188.242 57.693,188.333 57.750 C 188.425 57.807,188.500 58.096,188.500 58.393 C 188.500 58.690,188.566 59.005,188.646 59.092 C 188.727 59.179,188.843 59.531,188.904 59.875 L 189.015 60.500 182.174 60.500 L 175.333 60.500 175.333 60.093 C 175.333 59.869,175.408 59.640,175.500 59.583 C 175.592 59.527,175.667 59.297,175.667 59.073 C 175.667 58.850,175.742 58.667,175.833 58.667 C 175.925 58.667,176.000 58.484,176.000 58.260 C 176.000 58.036,176.072 57.809,176.159 57.755 C 176.246 57.701,176.369 57.207,176.431 56.658 C 176.493 56.109,176.609 55.619,176.689 55.570 C 176.768 55.521,176.833 55.297,176.833 55.073 C 176.833 54.850,176.908 54.667,177.000 54.667 C 177.092 54.667,177.167 54.409,177.167 54.093 C 177.167 53.778,177.242 53.473,177.333 53.417 C 177.425 53.360,177.500 53.135,177.500 52.917 C 177.500 52.698,177.575 52.473,177.667 52.417 C 177.758 52.360,177.833 52.131,177.833 51.907 C 177.833 51.683,177.908 51.500,178.000 51.500 C 178.092 51.500,178.167 51.317,178.167 51.093 C 178.167 50.869,178.242 50.640,178.333 50.583 C 178.425 50.527,178.500 50.302,178.500 50.083 C 178.500 49.865,178.565 49.646,178.645 49.597 C 178.724 49.548,178.841 49.056,178.903 48.504 C 178.965 47.952,179.088 47.500,179.175 47.500 C 179.262 47.500,179.333 47.242,179.333 46.927 C 179.333 46.611,179.408 46.307,179.500 46.250 C 179.592 46.193,179.667 45.893,179.667 45.583 C 179.667 45.273,179.742 44.973,179.833 44.917 C 179.925 44.860,180.000 44.631,180.000 44.407 C 180.000 44.183,180.075 44.000,180.167 44.000 C 180.258 44.000,180.333 43.817,180.333 43.593 C 180.333 43.369,180.408 43.140,180.500 43.083 C 180.592 43.027,180.667 42.802,180.667 42.583 C 180.667 42.365,180.742 42.140,180.833 42.083 C 180.925 42.027,181.000 41.797,181.000 41.573 C 181.000 41.350,181.065 41.167,181.145 41.167 C 181.225 41.167,181.341 40.719,181.403 40.172 C 181.465 39.625,181.587 39.133,181.674 39.079 C 181.762 39.025,181.833 38.722,181.833 38.407 C 181.833 37.944,181.898 37.833,182.167 37.833 C 182.437 37.833,182.500 37.944,182.500 38.417 M211.000 38.833 L 211.000 39.333 214.250 39.333 C 216.306 39.333,217.500 39.395,217.500 39.500 C 217.500 39.592,217.613 39.667,217.752 39.667 C 218.182 39.667,219.000 40.581,219.000 41.062 C 219.000 41.305,219.093 41.654,219.207 41.836 C 219.371 42.099,219.371 42.234,219.207 42.498 C 219.093 42.680,219.000 42.934,219.000 43.063 C 219.000 43.394,218.087 44.333,217.766 44.333 C 217.620 44.333,217.500 44.408,217.500 44.500 C 217.500 44.605,216.306 44.667,214.250 44.667 C 211.111 44.667,211.000 44.678,211.000 45.000 C 211.000 45.412,217.164 45.524,217.877 45.125 C 218.599 44.722,219.333 43.933,219.333 43.560 C 219.333 43.355,219.408 43.140,219.500 43.083 C 219.592 43.027,219.667 42.585,219.667 42.102 C 219.667 40.397,218.395 38.667,217.141 38.667 C 216.972 38.667,216.833 38.592,216.833 38.500 C 216.833 38.395,215.750 38.333,213.917 38.333 L 211.000 38.333 211.000 38.833 M211.000 50.083 C 211.000 52.443,211.058 53.651,211.167 53.583 C 211.258 53.527,211.333 52.900,211.333 52.190 C 211.333 50.402,211.078 50.500,215.720 50.500 C 219.246 50.500,219.683 50.471,219.500 50.250 C 219.357 50.077,219.350 50.000,219.480 50.000 C 219.582 50.000,219.667 49.925,219.667 49.833 C 219.667 49.727,218.167 49.667,215.500 49.667 L 211.333 49.667 211.333 48.177 C 211.333 47.357,211.258 46.640,211.167 46.583 C 211.058 46.516,211.000 47.724,211.000 50.083 M219.083 54.833 C 219.027 54.925,218.727 55.000,218.417 55.000 C 218.107 55.000,217.807 55.075,217.750 55.167 C 217.693 55.258,217.499 55.333,217.318 55.333 C 216.943 55.333,216.221 55.756,215.797 56.223 C 215.519 56.530,215.488 56.517,214.714 55.771 C 213.507 54.610,211.333 54.720,211.333 55.942 C 211.333 56.066,211.258 56.167,211.167 56.167 C 211.075 56.167,211.000 56.425,211.000 56.740 C 211.000 57.056,210.925 57.360,210.833 57.417 C 210.742 57.473,210.667 57.928,210.667 58.427 C 210.667 58.925,210.742 59.333,210.833 59.333 C 210.925 59.333,211.000 59.596,211.000 59.917 L 211.000 60.500 215.133 60.500 C 219.353 60.500,219.918 60.420,219.476 59.887 C 219.344 59.729,218.781 59.667,217.480 59.667 L 215.667 59.667 215.667 58.449 C 215.667 57.120,216.275 56.167,217.123 56.167 C 217.320 56.167,217.527 56.092,217.583 56.000 C 217.640 55.908,217.833 55.833,218.012 55.833 C 218.191 55.833,218.506 55.747,218.711 55.641 C 218.916 55.535,219.196 55.396,219.333 55.331 C 219.675 55.172,219.755 54.667,219.439 54.667 C 219.300 54.667,219.140 54.742,219.083 54.833 M213.871 55.708 C 214.430 56.026,214.667 56.283,214.667 56.571 C 214.667 56.715,214.742 56.833,214.833 56.833 C 214.931 56.833,215.000 57.417,215.000 58.250 L 215.000 59.667 213.167 59.667 L 211.333 59.667 211.336 58.292 C 211.340 56.090,212.487 54.921,213.871 55.708 M214.083 62.000 C 214.027 62.092,213.846 62.167,213.682 62.167 C 212.715 62.167,211.000 63.864,211.000 64.821 C 211.000 65.000,210.925 65.193,210.833 65.250 C 210.742 65.307,210.667 65.794,210.667 66.333 C 210.667 66.873,210.742 67.360,210.833 67.417 C 210.925 67.473,211.000 67.666,211.000 67.845 C 211.000 68.570,212.335 70.167,212.941 70.167 C 213.146 70.167,213.360 70.242,213.417 70.333 C 213.473 70.425,213.703 70.500,213.927 70.500 C 214.150 70.500,214.333 70.575,214.333 70.667 C 214.333 70.758,214.741 70.833,215.240 70.833 C 215.739 70.833,216.193 70.758,216.250 70.667 C 216.307 70.575,216.487 70.500,216.651 70.500 C 216.914 70.500,217.600 70.234,218.328 69.850 C 218.563 69.725,218.853 69.300,219.407 68.266 C 220.500 66.227,218.666 62.167,216.651 62.167 C 216.487 62.167,216.307 62.092,216.250 62.000 C 216.193 61.908,215.706 61.833,215.167 61.833 C 214.627 61.833,214.140 61.908,214.083 62.000 M216.500 62.833 C 216.500 62.925,216.650 63.000,216.833 63.000 C 217.017 63.000,217.167 63.075,217.167 63.167 C 217.167 63.258,217.264 63.333,217.383 63.333 C 217.502 63.333,217.895 63.637,218.258 64.008 L 218.917 64.683 218.917 66.389 L 218.917 68.094 218.297 68.714 C 217.957 69.055,217.563 69.333,217.422 69.333 C 217.282 69.333,217.167 69.408,217.167 69.500 C 217.167 69.592,217.017 69.667,216.833 69.667 C 216.650 69.667,216.500 69.742,216.500 69.833 C 216.500 69.931,215.944 70.000,215.167 70.000 C 214.389 70.000,213.833 69.931,213.833 69.833 C 213.833 69.742,213.700 69.667,213.537 69.667 C 213.374 69.667,213.132 69.517,213.000 69.333 C 212.868 69.150,212.660 69.000,212.539 69.000 C 211.208 69.000,210.814 64.805,212.078 64.100 C 212.259 63.999,212.608 63.710,212.853 63.458 C 213.099 63.206,213.420 63.000,213.567 63.000 C 213.713 63.000,213.833 62.925,213.833 62.833 C 213.833 62.736,214.389 62.667,215.167 62.667 C 215.944 62.667,216.500 62.736,216.500 62.833 M212.750 72.333 C 212.693 72.425,212.476 72.500,212.266 72.500 C 211.884 72.500,211.598 72.759,211.208 73.456 C 211.075 73.694,211.000 74.523,211.000 75.748 L 211.000 77.667 215.167 77.667 C 218.759 77.667,219.333 77.632,219.333 77.417 C 219.333 77.213,219.059 77.167,217.867 77.167 C 216.061 77.167,216.000 77.113,216.000 75.548 C 216.000 74.877,215.906 74.161,215.792 73.956 C 215.382 73.224,214.600 72.500,214.217 72.500 C 214.006 72.500,213.833 72.425,213.833 72.333 C 213.833 72.242,213.613 72.167,213.343 72.167 C 213.074 72.167,212.807 72.242,212.750 72.333 M213.868 72.875 C 214.444 73.205,215.000 73.795,215.000 74.076 C 215.000 74.217,215.056 74.334,215.125 74.335 C 215.713 74.341,215.815 76.200,215.258 76.758 C 214.790 77.225,211.951 77.384,211.533 76.967 C 211.076 76.509,211.281 74.112,211.823 73.594 C 212.732 72.722,213.271 72.533,213.868 72.875 M219.000 82.318 C 219.000 82.401,218.606 82.519,218.125 82.580 C 217.152 82.703,216.321 83.030,216.003 83.414 C 215.725 83.748,215.000 83.747,215.000 83.411 C 215.000 83.271,214.869 83.107,214.708 83.046 C 214.548 82.985,214.318 82.837,214.196 82.718 C 213.338 81.869,211.000 83.019,211.000 84.289 C 211.000 84.577,210.925 84.860,210.833 84.917 C 210.742 84.973,210.667 85.536,210.667 86.167 C 210.667 86.798,210.742 87.360,210.833 87.417 C 210.925 87.473,211.000 87.778,211.000 88.093 L 211.000 88.667 215.133 88.667 C 219.507 88.667,219.667 88.639,219.667 87.883 C 219.667 87.510,219.625 87.500,218.071 87.500 C 216.129 87.500,215.998 87.408,216.006 86.054 C 216.012 84.981,216.377 84.333,216.975 84.333 C 217.161 84.333,217.360 84.258,217.417 84.167 C 217.473 84.075,217.698 84.000,217.917 84.000 C 218.135 84.000,218.360 83.925,218.417 83.833 C 218.473 83.742,218.688 83.667,218.893 83.667 C 219.416 83.667,219.667 83.359,219.667 82.717 C 219.667 82.278,219.599 82.167,219.333 82.167 C 219.150 82.167,219.000 82.235,219.000 82.318 M213.858 83.867 C 214.475 84.158,214.689 84.799,214.633 86.194 L 214.583 87.417 213.518 87.467 C 212.130 87.532,211.500 87.038,211.500 85.883 C 211.500 84.915,212.020 84.000,212.571 84.000 C 212.715 84.000,212.833 83.925,212.833 83.833 C 212.833 83.607,213.342 83.623,213.858 83.867 M211.000 90.833 L 211.000 91.500 215.167 91.500 L 219.333 91.500 219.333 90.833 L 219.333 90.167 215.167 90.167 L 211.000 90.167 211.000 90.833 M218.500 93.167 C 218.500 93.258,218.275 93.333,218.000 93.333 C 217.725 93.333,217.500 93.408,217.500 93.500 C 217.500 93.592,217.317 93.667,217.093 93.667 C 216.869 93.667,216.640 93.742,216.583 93.833 C 216.527 93.925,216.342 94.000,216.174 94.000 C 216.005 94.000,215.439 94.225,214.915 94.501 C 214.391 94.777,213.669 95.049,213.311 95.106 C 212.952 95.164,212.619 95.276,212.570 95.355 C 212.521 95.435,212.350 95.500,212.190 95.500 C 211.302 95.500,211.003 95.867,211.001 96.958 C 211.000 97.952,211.019 98.000,211.407 98.000 C 211.631 98.000,211.860 98.075,211.917 98.167 C 211.973 98.258,212.203 98.333,212.427 98.333 C 212.650 98.333,212.833 98.408,212.833 98.500 C 212.833 98.592,212.983 98.667,213.167 98.667 C 213.350 98.667,213.500 98.723,213.500 98.793 C 213.500 98.999,214.357 99.298,215.291 99.419 C 215.773 99.481,216.208 99.599,216.260 99.682 C 216.311 99.765,216.536 99.833,216.760 99.833 C 216.984 99.833,217.167 99.908,217.167 100.000 C 217.167 100.092,217.350 100.167,217.573 100.167 C 217.797 100.167,218.027 100.242,218.083 100.333 C 218.140 100.425,218.354 100.500,218.560 100.500 C 218.765 100.500,219.023 100.590,219.133 100.700 C 219.289 100.856,219.333 100.763,219.333 100.283 C 219.333 99.846,219.261 99.667,219.083 99.667 C 218.946 99.667,218.833 99.592,218.833 99.500 C 218.833 99.408,218.683 99.333,218.500 99.333 C 218.317 99.333,218.167 99.258,218.167 99.167 C 218.167 99.075,217.991 99.000,217.776 99.000 C 217.041 99.000,216.833 98.534,216.833 96.888 C 216.833 95.151,216.961 94.944,218.157 94.748 C 219.340 94.554,220.015 93.000,218.917 93.000 C 218.688 93.000,218.500 93.075,218.500 93.167 M216.029 95.776 C 216.413 96.123,216.459 97.732,216.095 98.095 C 215.826 98.364,214.667 98.422,214.667 98.167 C 214.667 98.075,214.484 98.000,214.260 98.000 C 214.036 98.000,213.807 97.925,213.750 97.833 C 213.693 97.742,213.468 97.667,213.250 97.667 C 213.032 97.667,212.807 97.592,212.750 97.500 C 212.693 97.408,212.464 97.333,212.240 97.333 C 211.445 97.333,211.968 96.511,212.780 96.485 C 213.038 96.477,213.625 96.258,214.083 96.000 C 215.052 95.454,215.602 95.390,216.029 95.776 " stroke="none" fill="#fcfcfc" fill-rule="evenodd"></path><path id="path2" d="M110.500 23.333 L 110.500 40.500 120.500 40.500 L 130.500 40.500 130.500 52.333 C 130.500 60.111,130.557 64.167,130.667 64.167 C 130.777 64.167,130.833 71.722,130.833 86.500 L 130.833 108.833 148.476 108.833 L 166.118 108.833 166.210 106.714 C 166.266 105.402,166.371 104.571,166.484 104.533 C 166.584 104.500,166.667 104.178,166.667 103.819 C 166.667 103.460,166.742 103.167,166.833 103.167 C 166.925 103.167,167.000 102.942,167.000 102.667 C 167.000 102.392,167.075 102.167,167.167 102.167 C 167.258 102.167,167.333 101.846,167.333 101.453 C 167.333 100.931,167.423 100.676,167.667 100.500 C 167.850 100.368,168.000 100.089,168.000 99.880 C 168.000 99.671,168.075 99.500,168.167 99.500 C 168.258 99.500,168.333 99.200,168.333 98.833 C 168.333 98.467,168.402 98.167,168.487 98.167 C 168.571 98.167,168.692 97.679,168.756 97.083 C 168.820 96.488,168.938 96.000,169.019 96.000 C 169.100 96.000,169.167 95.700,169.167 95.333 C 169.167 94.967,169.242 94.667,169.333 94.667 C 169.425 94.667,169.500 94.404,169.500 94.083 C 169.500 93.763,169.575 93.500,169.667 93.500 C 169.758 93.500,169.833 93.208,169.833 92.851 C 169.833 91.948,169.081 92.000,182.163 92.000 L 193.966 92.000 194.083 93.167 C 194.148 93.809,194.268 94.376,194.350 94.427 C 194.433 94.478,194.500 94.686,194.500 94.890 C 194.500 95.093,194.650 95.368,194.833 95.500 C 195.077 95.676,195.167 95.931,195.167 96.453 C 195.167 96.846,195.242 97.167,195.333 97.167 C 195.425 97.167,195.500 97.392,195.500 97.667 C 195.500 97.942,195.575 98.167,195.667 98.167 C 195.758 98.167,195.833 98.467,195.833 98.833 C 195.833 99.200,195.908 99.500,196.000 99.500 C 196.092 99.500,196.167 99.763,196.167 100.083 C 196.167 100.404,196.236 100.667,196.320 100.667 C 196.404 100.667,196.526 101.154,196.589 101.750 C 196.653 102.346,196.772 102.833,196.853 102.833 C 196.934 102.833,197.000 103.042,197.000 103.297 C 197.000 103.569,197.138 103.859,197.333 104.000 C 197.577 104.176,197.667 104.431,197.667 104.953 C 197.667 105.346,197.742 105.667,197.833 105.667 C 197.925 105.667,198.000 105.892,198.000 106.167 C 198.000 106.442,198.075 106.667,198.167 106.667 C 198.261 106.667,198.333 107.139,198.333 107.750 L 198.333 108.833 216.083 108.833 L 233.833 108.833 233.833 95.417 L 233.833 82.000 245.083 82.000 C 252.472 82.000,256.333 81.943,256.333 81.833 C 256.333 81.742,256.483 81.667,256.667 81.667 C 256.850 81.667,257.000 81.592,257.000 81.500 C 257.000 81.404,257.528 81.333,258.250 81.333 C 258.972 81.333,259.500 81.263,259.500 81.167 C 259.500 81.075,259.875 81.000,260.333 81.000 C 260.792 81.000,261.167 80.925,261.167 80.833 C 261.167 80.742,261.429 80.667,261.750 80.667 C 262.071 80.667,262.333 80.592,262.333 80.500 C 262.333 80.408,262.633 80.333,263.000 80.333 C 263.367 80.333,263.667 80.264,263.667 80.179 C 263.667 80.094,264.079 79.972,264.583 79.909 C 265.087 79.846,265.500 79.729,265.500 79.647 C 265.500 79.566,265.645 79.500,265.822 79.500 C 265.999 79.500,266.192 79.350,266.250 79.167 C 266.324 78.933,266.502 78.833,266.845 78.833 C 267.113 78.833,267.333 78.758,267.333 78.667 C 267.333 78.575,267.483 78.500,267.667 78.500 C 267.850 78.500,268.000 78.425,268.000 78.333 C 268.000 78.242,268.188 78.167,268.417 78.167 C 268.646 78.167,268.833 78.092,268.833 78.000 C 268.833 77.908,268.951 77.833,269.095 77.833 C 269.239 77.833,269.470 77.721,269.607 77.583 C 269.745 77.446,270.049 77.333,270.284 77.333 C 270.680 77.333,271.333 76.799,271.333 76.474 C 271.333 76.397,271.467 76.333,271.630 76.333 C 271.793 76.333,272.035 76.183,272.167 76.000 C 272.299 75.817,272.540 75.667,272.703 75.667 C 272.867 75.667,273.000 75.592,273.000 75.500 C 273.000 75.408,273.113 75.333,273.251 75.333 C 273.389 75.333,273.835 74.996,274.241 74.583 C 274.648 74.171,275.067 73.833,275.173 73.833 C 275.341 73.833,275.767 73.421,276.486 72.564 C 276.593 72.437,276.827 72.333,277.007 72.333 C 277.193 72.333,277.333 72.220,277.333 72.071 C 277.333 71.766,277.724 71.333,278.000 71.333 C 278.292 71.333,278.598 70.963,278.725 70.457 C 278.788 70.206,278.902 70.000,278.978 70.000 C 279.238 70.000,279.833 69.378,279.833 69.105 C 279.833 68.956,279.949 68.833,280.091 68.833 C 280.427 68.833,281.167 68.090,281.167 67.752 C 281.167 67.608,281.279 67.446,281.417 67.394 C 281.554 67.341,281.667 67.156,281.667 66.982 C 281.667 66.809,281.742 66.667,281.833 66.667 C 281.925 66.667,282.000 66.547,282.000 66.400 C 282.000 66.125,282.920 65.167,283.184 65.167 C 283.266 65.167,283.333 65.017,283.333 64.833 C 283.333 64.650,283.402 64.500,283.485 64.500 C 283.569 64.500,283.688 64.200,283.750 63.833 C 283.812 63.467,283.931 63.167,284.015 63.167 C 284.098 63.167,284.167 63.054,284.167 62.917 C 284.167 62.779,284.242 62.667,284.333 62.667 C 284.425 62.667,284.500 62.517,284.500 62.333 C 284.500 62.150,284.575 62.000,284.667 62.000 C 284.758 62.000,284.833 61.867,284.833 61.703 C 284.833 61.540,284.983 61.299,285.167 61.167 C 285.350 61.035,285.500 60.793,285.500 60.630 C 285.500 60.467,285.575 60.333,285.667 60.333 C 285.758 60.333,285.833 60.221,285.833 60.083 C 285.833 59.946,285.901 59.833,285.984 59.833 C 286.066 59.833,286.186 59.383,286.250 58.833 C 286.314 58.283,286.434 57.833,286.516 57.833 C 286.599 57.833,286.667 57.646,286.667 57.417 C 286.667 57.188,286.742 57.000,286.833 57.000 C 286.925 57.000,287.000 56.775,287.000 56.500 C 287.000 56.225,287.075 56.000,287.167 56.000 C 287.258 56.000,287.333 55.737,287.333 55.417 C 287.333 55.096,287.408 54.833,287.500 54.833 C 287.592 54.833,287.667 54.683,287.667 54.500 C 287.667 54.317,287.742 54.167,287.833 54.167 C 287.925 54.167,288.000 53.942,288.000 53.667 C 288.000 53.392,288.075 53.167,288.167 53.167 C 288.258 53.167,288.333 52.760,288.333 52.264 C 288.333 51.690,288.409 51.336,288.542 51.292 C 288.704 51.238,288.750 49.630,288.750 44.000 C 288.750 38.370,288.704 36.762,288.542 36.708 C 288.409 36.664,288.333 36.310,288.333 35.736 C 288.333 35.240,288.258 34.833,288.167 34.833 C 288.075 34.833,288.000 34.538,288.000 34.178 C 288.000 33.669,287.926 33.499,287.667 33.417 C 287.408 33.334,287.333 33.164,287.333 32.655 C 287.333 32.295,287.258 32.000,287.167 32.000 C 287.075 32.000,287.000 31.775,287.000 31.500 C 287.000 31.225,286.925 31.000,286.833 31.000 C 286.742 31.000,286.667 30.813,286.667 30.583 C 286.667 30.354,286.600 30.167,286.519 30.167 C 286.438 30.167,286.320 29.754,286.257 29.250 C 286.194 28.746,286.073 28.333,285.988 28.333 C 285.903 28.333,285.833 28.183,285.833 28.000 C 285.833 27.817,285.758 27.667,285.667 27.667 C 285.575 27.667,285.500 27.533,285.500 27.370 C 285.500 27.207,285.350 26.965,285.167 26.833 C 284.983 26.701,284.833 26.497,284.833 26.380 C 284.833 26.263,284.758 26.167,284.667 26.167 C 284.575 26.167,284.500 25.969,284.500 25.728 C 284.500 25.487,284.360 25.168,284.189 25.019 C 284.018 24.871,283.825 24.506,283.759 24.208 C 283.694 23.910,283.571 23.667,283.487 23.667 C 283.402 23.667,283.333 23.548,283.333 23.404 C 283.333 23.259,283.033 22.852,282.667 22.500 C 282.300 22.148,282.000 21.741,282.000 21.596 C 282.000 21.452,281.925 21.333,281.833 21.333 C 281.742 21.333,281.667 21.221,281.667 21.083 C 281.667 20.946,281.593 20.833,281.503 20.833 C 281.413 20.833,281.289 20.630,281.227 20.382 C 281.093 19.849,280.455 19.167,280.091 19.167 C 279.949 19.167,279.833 19.054,279.833 18.917 C 279.833 18.779,279.758 18.667,279.667 18.667 C 279.575 18.667,279.500 18.551,279.500 18.411 C 279.500 18.153,279.201 17.777,278.209 16.789 C 277.229 15.812,276.511 15.167,276.405 15.167 C 276.347 15.167,276.090 14.942,275.833 14.667 C 275.576 14.392,275.246 14.167,275.100 14.167 C 274.953 14.167,274.833 14.086,274.833 13.988 C 274.833 13.723,274.395 13.333,274.095 13.333 C 273.951 13.333,273.833 13.270,273.833 13.192 C 273.833 12.877,273.185 12.333,272.809 12.333 C 272.588 12.333,272.299 12.183,272.167 12.000 C 272.035 11.817,271.827 11.667,271.705 11.667 C 271.584 11.667,271.310 11.479,271.098 11.250 C 270.886 11.021,270.589 10.833,270.439 10.833 C 270.289 10.833,270.167 10.758,270.167 10.667 C 270.167 10.575,270.017 10.500,269.833 10.500 C 269.650 10.500,269.500 10.425,269.500 10.333 C 269.500 10.242,269.350 10.167,269.167 10.167 C 268.983 10.167,268.833 10.092,268.833 10.000 C 268.833 9.908,268.721 9.833,268.583 9.833 C 268.446 9.833,268.333 9.758,268.333 9.667 C 268.333 9.575,268.108 9.500,267.833 9.500 C 267.558 9.500,267.333 9.425,267.333 9.333 C 267.333 9.242,267.183 9.167,267.000 9.167 C 266.817 9.167,266.667 9.093,266.667 9.003 C 266.667 8.913,266.479 8.793,266.250 8.735 C 266.021 8.678,265.833 8.564,265.833 8.482 C 265.833 8.400,265.608 8.333,265.333 8.333 C 265.058 8.333,264.833 8.258,264.833 8.167 C 264.833 8.075,264.608 8.000,264.333 8.000 C 264.058 8.000,263.833 7.925,263.833 7.833 C 263.833 7.742,263.571 7.667,263.250 7.667 C 262.929 7.667,262.667 7.592,262.667 7.500 C 262.667 7.408,262.367 7.333,262.000 7.333 C 261.633 7.333,261.333 7.258,261.333 7.167 C 261.333 7.075,260.921 7.000,260.417 7.000 C 259.912 7.000,259.500 6.925,259.500 6.833 C 259.500 6.742,259.093 6.667,258.595 6.667 C 258.013 6.667,257.601 6.577,257.440 6.417 C 257.219 6.195,248.819 6.167,183.845 6.167 L 110.500 6.167 110.500 23.333 M254.417 9.500 C 254.473 9.592,254.961 9.667,255.500 9.667 C 256.039 9.667,256.527 9.742,256.583 9.833 C 256.640 9.925,257.019 10.000,257.427 10.000 C 257.834 10.000,258.167 10.075,258.167 10.167 C 258.167 10.258,258.500 10.333,258.907 10.333 C 259.314 10.333,259.693 10.408,259.750 10.500 C 259.807 10.592,260.032 10.667,260.250 10.667 C 260.468 10.667,260.693 10.742,260.750 10.833 C 260.807 10.925,260.980 11.000,261.135 11.001 C 261.290 11.002,261.631 11.114,261.894 11.251 C 262.157 11.388,262.473 11.500,262.597 11.500 C 262.722 11.500,263.090 11.650,263.417 11.833 C 263.743 12.017,264.105 12.167,264.222 12.167 C 264.524 12.167,265.330 12.560,265.332 12.708 C 265.333 12.777,265.483 12.833,265.667 12.833 C 265.850 12.833,266.000 12.891,266.000 12.961 C 266.000 13.031,266.281 13.223,266.625 13.387 C 267.748 13.924,268.667 14.449,268.974 14.727 C 269.140 14.877,269.352 15.000,269.446 15.000 C 269.539 15.000,269.751 15.150,269.917 15.333 C 270.083 15.517,270.304 15.667,270.410 15.667 C 270.515 15.667,270.856 15.929,271.167 16.250 C 271.478 16.571,271.800 16.833,271.882 16.833 C 271.965 16.833,272.243 17.058,272.500 17.333 C 272.757 17.608,273.052 17.833,273.156 17.833 C 273.427 17.833,274.333 18.800,274.333 19.089 C 274.333 19.223,274.445 19.333,274.580 19.333 C 274.856 19.333,276.333 20.685,276.333 20.937 C 276.333 21.025,276.596 21.376,276.917 21.716 C 277.237 22.056,277.500 22.395,277.500 22.469 C 277.500 22.544,277.725 22.820,278.000 23.083 C 278.275 23.347,278.500 23.649,278.500 23.755 C 278.500 23.861,278.650 24.084,278.834 24.251 C 279.018 24.417,279.370 24.972,279.618 25.485 C 279.865 25.997,280.203 26.538,280.367 26.686 C 280.532 26.834,280.667 27.078,280.667 27.228 C 280.667 27.378,280.723 27.500,280.793 27.500 C 280.862 27.500,281.021 27.744,281.147 28.042 C 281.272 28.340,281.478 28.801,281.604 29.067 C 281.730 29.333,281.833 29.650,281.833 29.771 C 281.833 29.891,281.983 30.257,282.167 30.583 C 282.350 30.910,282.500 31.325,282.500 31.505 C 282.500 31.686,282.575 31.833,282.667 31.833 C 282.758 31.833,282.833 31.983,282.833 32.167 C 282.833 32.350,282.908 32.500,283.000 32.500 C 283.092 32.500,283.167 32.683,283.167 32.907 C 283.167 33.131,283.242 33.360,283.333 33.417 C 283.425 33.473,283.500 33.698,283.500 33.917 C 283.500 34.135,283.569 34.356,283.653 34.408 C 283.736 34.460,283.858 35.065,283.922 35.754 C 283.987 36.442,284.106 37.046,284.186 37.096 C 284.267 37.145,284.333 37.702,284.333 38.333 C 284.333 38.964,284.408 39.527,284.500 39.583 C 284.603 39.647,284.667 41.168,284.667 43.593 C 284.667 46.087,284.606 47.500,284.500 47.500 C 284.406 47.500,284.333 47.969,284.333 48.573 C 284.333 49.164,284.265 49.689,284.182 49.741 C 284.098 49.792,283.977 50.473,283.912 51.253 C 283.847 52.033,283.727 52.712,283.647 52.762 C 283.566 52.812,283.500 53.036,283.500 53.260 C 283.500 53.484,283.425 53.667,283.333 53.667 C 283.242 53.667,283.167 53.892,283.167 54.167 C 283.167 54.442,283.110 54.667,283.042 54.668 C 282.893 54.670,282.500 55.476,282.500 55.778 C 282.500 55.895,282.350 56.257,282.167 56.583 C 281.983 56.910,281.833 57.325,281.833 57.505 C 281.833 57.686,281.764 57.833,281.680 57.833 C 281.596 57.833,281.477 58.057,281.417 58.331 C 281.357 58.605,281.238 58.872,281.154 58.925 C 281.069 58.977,281.000 59.191,281.000 59.401 C 281.000 59.610,280.850 59.917,280.667 60.083 C 280.483 60.249,280.333 60.477,280.333 60.589 C 280.333 60.701,280.217 60.889,280.075 61.007 C 279.933 61.125,279.669 61.528,279.489 61.902 C 279.012 62.893,278.821 63.166,278.125 63.855 C 277.781 64.195,277.500 64.541,277.500 64.622 C 277.500 64.704,277.275 64.987,277.000 65.250 C 276.725 65.513,276.500 65.808,276.500 65.903 C 276.500 66.134,272.974 69.667,272.744 69.667 C 272.646 69.667,272.311 69.929,272.000 70.250 C 271.689 70.571,271.353 70.833,271.254 70.833 C 271.155 70.833,270.965 70.983,270.833 71.167 C 270.701 71.350,270.490 71.500,270.363 71.500 C 270.237 71.500,269.933 71.706,269.687 71.958 C 269.141 72.518,268.941 72.643,267.227 73.496 C 266.481 73.867,265.791 74.267,265.693 74.384 C 265.596 74.502,265.250 74.703,264.925 74.830 C 264.599 74.958,264.333 75.116,264.333 75.182 C 264.333 75.248,263.958 75.354,263.500 75.417 C 263.042 75.480,262.625 75.599,262.574 75.682 C 262.522 75.765,262.302 75.833,262.083 75.833 C 261.865 75.833,261.640 75.908,261.583 76.000 C 261.527 76.092,261.297 76.167,261.073 76.167 C 260.850 76.167,260.667 76.242,260.667 76.333 C 260.667 76.425,260.444 76.500,260.172 76.500 C 259.900 76.500,259.410 76.650,259.083 76.833 C 258.757 77.017,258.207 77.167,257.862 77.167 C 257.516 77.167,257.152 77.248,257.054 77.346 C 256.951 77.449,255.879 77.562,254.562 77.609 C 253.290 77.654,252.100 77.762,251.917 77.848 C 251.723 77.938,247.073 78.020,240.833 78.044 L 230.083 78.083 230.041 91.792 L 229.998 105.500 216.249 105.500 L 202.500 105.500 202.500 105.083 C 202.500 104.854,202.425 104.667,202.333 104.667 C 202.242 104.667,202.167 104.517,202.167 104.333 C 202.167 104.150,202.092 104.000,202.000 104.000 C 201.908 104.000,201.833 103.817,201.833 103.593 C 201.833 103.369,201.758 103.140,201.667 103.083 C 201.575 103.027,201.500 102.727,201.500 102.417 C 201.500 102.107,201.425 101.807,201.333 101.750 C 201.242 101.693,201.167 101.468,201.167 101.250 C 201.167 101.032,201.098 100.810,201.013 100.758 C 200.929 100.706,200.807 100.175,200.743 99.579 C 200.680 98.983,200.561 98.454,200.480 98.405 C 200.399 98.355,200.333 98.135,200.333 97.917 C 200.333 97.698,200.258 97.473,200.167 97.417 C 200.075 97.360,200.000 97.131,200.000 96.907 C 200.000 96.683,199.925 96.500,199.833 96.500 C 199.742 96.500,199.667 96.317,199.667 96.093 C 199.667 95.869,199.592 95.640,199.500 95.583 C 199.408 95.527,199.333 95.302,199.333 95.083 C 199.333 94.865,199.258 94.640,199.167 94.583 C 199.075 94.527,199.000 94.302,199.000 94.083 C 199.000 93.865,198.925 93.640,198.833 93.583 C 198.742 93.527,198.667 93.264,198.667 93.000 C 198.667 92.736,198.599 92.478,198.517 92.427 C 198.435 92.376,198.315 91.809,198.250 91.167 C 198.186 90.525,198.065 90.000,197.983 90.000 C 197.901 90.000,197.833 89.862,197.833 89.692 C 197.833 89.523,197.715 89.148,197.571 88.859 L 197.309 88.333 182.196 88.335 L 167.083 88.336 166.875 88.785 C 166.760 89.031,166.667 89.364,166.667 89.523 C 166.667 89.683,166.592 89.860,166.500 89.917 C 166.408 89.973,166.333 90.278,166.333 90.593 C 166.333 90.909,166.258 91.167,166.167 91.167 C 166.075 91.167,166.000 91.392,166.000 91.667 C 166.000 91.942,165.925 92.167,165.833 92.167 C 165.742 92.167,165.667 92.389,165.667 92.662 C 165.667 92.934,165.517 93.424,165.333 93.750 C 165.150 94.076,165.000 94.491,165.000 94.672 C 165.000 94.852,164.933 95.000,164.850 95.000 C 164.768 95.000,164.648 95.525,164.583 96.167 C 164.519 96.809,164.399 97.376,164.316 97.427 C 164.234 97.478,164.167 97.703,164.167 97.927 C 164.167 98.150,164.092 98.333,164.000 98.333 C 163.908 98.333,163.833 98.591,163.833 98.907 C 163.833 99.222,163.758 99.527,163.667 99.583 C 163.575 99.640,163.500 99.865,163.500 100.083 C 163.500 100.302,163.425 100.527,163.333 100.583 C 163.242 100.640,163.167 100.869,163.167 101.093 C 163.167 101.317,163.092 101.500,163.000 101.500 C 162.908 101.500,162.833 101.683,162.833 101.907 C 162.833 102.131,162.758 102.360,162.667 102.417 C 162.575 102.473,162.500 102.698,162.500 102.917 C 162.500 103.135,162.425 103.360,162.333 103.417 C 162.242 103.473,162.167 103.703,162.167 103.927 C 162.167 104.150,162.092 104.333,162.000 104.333 C 161.908 104.333,161.833 104.506,161.833 104.717 C 161.833 104.927,161.743 105.190,161.633 105.300 C 161.344 105.590,134.490 105.590,134.200 105.300 C 134.046 105.146,134.000 97.330,134.000 71.133 L 134.000 37.167 124.071 37.167 C 115.689 37.167,114.106 37.130,113.905 36.929 C 113.652 36.676,113.528 9.694,113.778 9.444 C 113.966 9.256,254.300 9.312,254.417 9.500 " stroke="none" fill="#040404" fill-rule="evenodd"></path><path id="path3" d="M166.470 9.458 C 169.433 9.484,174.233 9.484,177.137 9.458 C 180.041 9.433,177.617 9.412,171.750 9.412 C 165.883 9.412,163.508 9.433,166.470 9.458 M228.326 9.458 C 245.264 9.486,254.292 9.559,254.401 9.667 C 254.492 9.759,254.987 9.833,255.500 9.833 C 256.013 9.833,256.505 9.901,256.592 9.983 C 256.794 10.174,258.167 10.302,258.167 10.129 C 258.167 10.058,257.834 10.000,257.427 10.000 C 257.019 10.000,256.640 9.925,256.583 9.833 C 256.527 9.742,256.039 9.667,255.500 9.667 C 254.961 9.667,254.473 9.592,254.417 9.500 C 254.349 9.390,245.529 9.347,228.365 9.374 L 202.417 9.416 228.326 9.458 M113.746 23.167 C 113.746 30.729,113.767 33.823,113.792 30.042 C 113.817 26.260,113.817 20.073,113.792 16.292 C 113.767 12.510,113.746 15.604,113.746 23.167 M262.479 11.620 C 262.696 11.661,263.130 11.839,263.442 12.014 C 263.754 12.190,264.153 12.333,264.329 12.333 C 264.504 12.333,264.693 12.408,264.750 12.500 C 264.807 12.592,264.980 12.666,265.135 12.666 C 265.313 12.665,265.241 12.573,264.939 12.416 C 264.677 12.279,264.360 12.167,264.236 12.167 C 264.112 12.167,263.743 12.017,263.417 11.833 C 263.090 11.650,262.657 11.510,262.453 11.523 C 262.098 11.545,262.099 11.548,262.479 11.620 M268.017 14.297 C 268.348 14.455,268.760 14.696,268.934 14.833 C 269.225 15.064,269.232 15.061,269.024 14.795 C 268.781 14.485,267.899 13.996,267.599 14.006 C 267.499 14.009,267.687 14.140,268.017 14.297 M271.075 16.292 C 271.438 16.681,271.850 16.994,271.992 16.987 C 272.216 16.975,272.217 16.962,272.000 16.883 C 271.862 16.834,271.450 16.521,271.083 16.188 L 270.417 15.583 271.075 16.292 M275.833 20.480 C 275.833 20.582,275.908 20.667,276.000 20.667 C 276.092 20.667,276.167 20.785,276.167 20.929 C 276.167 21.212,276.632 21.757,276.762 21.627 C 276.806 21.583,276.727 21.453,276.587 21.337 C 276.448 21.221,276.333 21.032,276.333 20.917 C 276.333 20.802,276.221 20.614,276.083 20.500 C 275.911 20.357,275.833 20.350,275.833 20.480 M277.875 23.092 C 278.127 23.372,278.333 23.677,278.333 23.770 C 278.333 23.862,278.577 24.158,278.875 24.427 L 279.417 24.917 278.958 24.408 C 278.706 24.128,278.500 23.823,278.500 23.730 C 278.500 23.638,278.256 23.342,277.958 23.073 L 277.417 22.583 277.875 23.092 M156.859 25.573 C 156.891 25.726,156.992 25.847,157.083 25.842 C 157.331 25.829,157.285 25.456,157.026 25.370 C 156.886 25.323,156.823 25.399,156.859 25.573 M280.834 27.792 C 280.834 27.998,280.908 28.167,281.000 28.167 C 281.092 28.167,281.167 28.275,281.167 28.407 C 281.167 28.539,281.241 28.693,281.331 28.749 C 281.511 28.860,281.406 28.516,281.052 27.833 C 280.840 27.425,280.835 27.424,280.834 27.792 M283.023 32.865 C 283.010 33.112,283.075 33.360,283.167 33.417 C 283.258 33.473,283.333 33.688,283.333 33.893 C 283.333 34.099,283.403 34.338,283.488 34.425 C 283.573 34.512,283.674 34.846,283.711 35.167 L 283.780 35.750 283.807 35.135 C 283.821 34.796,283.758 34.473,283.667 34.417 C 283.575 34.360,283.500 34.146,283.500 33.940 C 283.500 33.735,283.431 33.495,283.347 33.408 C 283.264 33.321,283.161 33.063,283.120 32.833 C 283.045 32.417,283.045 32.417,283.023 32.865 M134.041 71.188 C 134.002 103.340,134.015 105.138,134.292 105.355 C 134.550 105.557,134.560 105.553,134.375 105.317 C 134.211 105.106,134.159 97.929,134.125 71.150 L 134.083 37.250 134.041 71.188 M283.695 51.865 C 283.679 52.295,283.592 52.693,283.500 52.750 C 283.408 52.807,283.342 53.055,283.353 53.302 C 283.367 53.635,283.391 53.664,283.445 53.417 C 283.485 53.233,283.594 52.928,283.687 52.739 C 283.781 52.549,283.827 52.099,283.790 51.739 C 283.724 51.092,283.722 51.094,283.695 51.865 M283.023 54.115 C 283.010 54.316,282.934 54.521,282.853 54.571 C 282.773 54.621,282.667 54.813,282.619 54.998 C 282.571 55.183,282.599 55.292,282.682 55.240 C 282.765 55.189,282.833 55.045,282.833 54.921 C 282.833 54.796,282.916 54.667,283.016 54.633 C 283.117 54.600,283.165 54.387,283.122 54.161 C 283.053 53.791,283.043 53.786,283.023 54.115 M280.856 59.349 C 280.844 59.587,280.683 59.917,280.500 60.083 C 280.317 60.249,280.167 60.461,280.167 60.554 C 280.167 60.648,280.035 60.880,279.875 61.070 C 279.584 61.416,279.584 61.416,279.958 61.099 C 280.165 60.925,280.333 60.704,280.333 60.610 C 280.333 60.515,280.490 60.272,280.680 60.069 C 280.899 59.836,281.000 59.555,280.953 59.308 C 280.882 58.933,280.878 58.934,280.856 59.349 M278.875 62.583 C 278.760 62.713,278.673 62.954,278.680 63.118 C 278.690 63.350,278.713 63.361,278.785 63.167 C 278.835 63.029,278.991 62.785,279.131 62.625 C 279.271 62.465,279.317 62.336,279.234 62.340 C 279.151 62.343,278.990 62.452,278.875 62.583 M275.575 66.875 L 274.917 67.583 275.625 66.925 C 276.015 66.562,276.333 66.243,276.333 66.216 C 276.333 66.090,276.188 66.216,275.575 66.875 M273.401 69.020 C 273.226 69.214,272.933 69.434,272.750 69.509 C 272.514 69.606,272.493 69.649,272.677 69.656 C 272.820 69.662,273.153 69.442,273.417 69.167 C 273.680 68.892,273.856 68.667,273.807 68.667 C 273.758 68.667,273.575 68.826,273.401 69.020 M268.567 72.708 C 268.253 73.080,268.253 73.081,268.583 72.813 C 268.767 72.665,269.029 72.502,269.167 72.452 C 269.379 72.374,269.376 72.358,269.151 72.346 C 269.005 72.339,268.742 72.502,268.567 72.708 M266.333 73.784 C 266.196 73.835,265.933 74.007,265.750 74.167 C 265.567 74.327,265.304 74.499,265.167 74.549 C 264.955 74.626,264.957 74.642,265.183 74.654 C 265.329 74.661,265.584 74.517,265.750 74.333 C 265.916 74.150,266.148 74.000,266.266 74.000 C 266.384 74.000,266.527 73.925,266.583 73.833 C 266.696 73.652,266.696 73.652,266.333 73.784 M263.435 75.303 C 263.389 75.378,263.572 75.407,263.842 75.368 C 264.112 75.328,264.333 75.267,264.333 75.231 C 264.333 75.104,263.518 75.170,263.435 75.303 M260.167 76.280 C 259.938 76.317,259.450 76.492,259.083 76.669 C 258.717 76.846,258.117 77.017,257.750 77.050 L 257.083 77.111 257.787 77.139 C 258.226 77.156,258.713 77.041,259.083 76.833 C 259.410 76.650,259.900 76.500,260.172 76.500 C 260.444 76.500,260.667 76.425,260.667 76.333 C 260.667 76.242,260.648 76.177,260.625 76.189 C 260.602 76.202,260.396 76.243,260.167 76.280 M255.605 77.465 C 255.560 77.538,255.799 77.570,256.137 77.536 C 257.059 77.445,257.169 77.361,256.385 77.346 C 256.001 77.339,255.650 77.393,255.605 77.465 M166.519 89.365 C 166.509 89.612,166.425 89.860,166.333 89.917 C 166.242 89.973,166.178 90.296,166.192 90.635 C 166.214 91.186,166.223 91.198,166.281 90.750 C 166.316 90.475,166.425 90.091,166.522 89.897 C 166.620 89.703,166.663 89.403,166.619 89.230 C 166.562 89.006,166.533 89.045,166.519 89.365 M198.358 91.698 C 198.345 92.037,198.408 92.360,198.500 92.417 C 198.592 92.473,198.677 92.759,198.689 93.052 C 198.708 93.484,198.726 93.509,198.788 93.183 C 198.829 92.964,198.784 92.626,198.687 92.433 C 198.591 92.241,198.483 91.858,198.448 91.583 C 198.390 91.135,198.381 91.147,198.358 91.698 M164.358 96.698 C 164.345 97.037,164.258 97.360,164.167 97.417 C 164.075 97.473,164.009 97.721,164.019 97.968 C 164.034 98.302,164.057 98.331,164.111 98.083 C 164.151 97.900,164.261 97.593,164.356 97.402 C 164.450 97.211,164.495 96.836,164.455 96.569 C 164.391 96.138,164.380 96.153,164.358 96.698 M163.653 99.042 C 163.604 99.400,163.629 99.604,163.713 99.520 C 163.794 99.440,163.833 99.159,163.800 98.895 C 163.745 98.455,163.733 98.466,163.653 99.042 M200.820 100.125 C 200.900 100.700,200.911 100.712,200.966 100.271 C 200.999 100.008,200.960 99.727,200.880 99.647 C 200.796 99.563,200.771 99.767,200.820 100.125 M201.500 102.490 C 201.500 102.760,201.559 103.017,201.632 103.062 C 201.704 103.107,201.734 102.886,201.697 102.572 C 201.615 101.871,201.500 101.824,201.500 102.490 M202.275 104.612 C 202.380 104.688,202.505 104.938,202.551 105.167 C 202.624 105.525,202.633 105.516,202.610 105.096 C 202.595 104.821,202.474 104.580,202.333 104.542 C 202.166 104.497,202.147 104.520,202.275 104.612 " stroke="none" fill="#acc060" fill-rule="evenodd"></path><path id="path4" d="" stroke="none" fill="#ac60e0" fill-rule="evenodd"></path></g></svg>